<?xml version="1.0" standalone="no"?>
<!DOCTYPE svg PUBLIC "-//W3C//DTD SVG 20010904//EN"
 "http://www.w3.org/TR/2001/REC-SVG-20010904/DTD/svg10.dtd">
<svg version="1.0" xmlns="http://www.w3.org/2000/svg"
 width="2048.000000pt" height="2048.000000pt" viewBox="0 0 2048.000000 2048.000000"
 preserveAspectRatio="xMidYMid meet">

<g transform="translate(0.000000,2048.000000) scale(0.100000,-0.100000)"
fill="#000000" stroke="none">
<path d="M0 10240 l0 -10240 10240 0 10240 0 0 10240 0 10240 -10240 0 -10240
0 0 -10240z m9845 5250 c183 -19 293 -44 391 -90 167 -78 194 -93 307 -166 61
-41 153 -96 203 -124 73 -40 110 -69 181 -143 116 -121 212 -233 225 -263 22
-48 36 -28 67 96 68 273 296 558 537 672 68 32 72 33 204 33 213 -1 325 -30
459 -119 135 -90 261 -238 330 -388 50 -107 159 -428 167 -491 5 -36 11 -47
22 -45 9 2 48 46 88 98 191 254 521 493 846 614 174 65 285 88 454 93 118 4
170 2 235 -12 180 -36 371 -116 524 -221 140 -96 178 -126 296 -234 76 -70
103 -103 129 -155 18 -37 39 -69 46 -72 26 -10 86 -115 124 -218 41 -109 71
-244 89 -403 16 -147 31 -152 137 -53 153 143 509 396 649 462 128 60 324 117
484 140 227 32 432 -29 588 -174 71 -67 136 -153 177 -235 79 -157 94 -470 36
-749 -33 -158 -32 -161 70 -118 107 45 248 77 345 79 78 1 97 -2 139 -24 62
-31 111 -81 128 -129 8 -23 13 -89 13 -186 0 -177 -3 -185 -116 -335 -103
-136 -201 -281 -195 -288 3 -3 36 9 74 26 152 71 464 129 627 118 296 -20 492
-103 667 -282 99 -101 148 -166 197 -264 63 -126 76 -202 75 -430 -1 -284 -35
-443 -144 -665 -80 -162 -161 -266 -374 -483 -205 -208 -202 -200 -79 -222 82
-14 238 -63 318 -100 138 -63 185 -159 185 -373 -1 -209 -44 -314 -219 -527
-82 -101 -155 -171 -251 -244 -184 -139 -489 -305 -600 -327 -30 -6 -151 -14
-268 -18 -117 -5 -215 -11 -218 -13 -2 -3 3 -47 12 -99 12 -71 15 -134 11
-259 -4 -150 -7 -174 -35 -258 -77 -237 -243 -401 -502 -499 -211 -79 -487
-67 -854 36 -113 32 -182 39 -188 20 -2 -6 2 -50 8 -98 18 -124 17 -336 -1
-397 -19 -64 -59 -124 -132 -198 -106 -108 -237 -176 -408 -212 -83 -17 -289
-19 -378 -4 -286 51 -444 125 -792 370 -38 27 -76 50 -82 50 -18 0 -37 -43
-73 -165 -54 -187 -129 -339 -273 -548 -148 -216 -272 -317 -498 -407 -413
-166 -642 -218 -916 -207 -215 8 -353 46 -583 159 -255 125 -430 257 -681 511
l-165 168 -41 -88 c-23 -48 -53 -120 -68 -160 -14 -39 -40 -91 -57 -115 -73
-101 -227 -225 -310 -249 -75 -22 -339 -61 -414 -61 -57 -1 -99 5 -146 21
-167 56 -469 246 -610 385 -48 47 -91 86 -97 86 -5 0 -21 -20 -36 -45 -64
-111 -296 -321 -488 -444 -207 -132 -371 -195 -590 -226 -134 -19 -201 -32
-322 -61 -57 -14 -130 -24 -170 -24 -99 0 -527 56 -605 79 -302 89 -572 223
-740 370 -201 176 -343 358 -436 561 -20 44 -39 80 -41 80 -10 0 -96 -71 -114
-94 -11 -14 -29 -26 -40 -26 -11 0 -40 -22 -65 -49 -38 -41 -68 -59 -172 -106
-269 -122 -262 -120 -402 -119 -138 0 -258 24 -419 83 -197 72 -347 212 -442
415 -22 48 -46 113 -52 144 -16 76 -23 85 -59 78 -44 -9 -196 -79 -272 -125
-201 -123 -472 -247 -701 -320 -165 -53 -267 -72 -420 -80 -265 -13 -484 18
-626 89 -313 158 -616 525 -744 905 -33 96 -38 125 -42 230 -4 85 -1 147 11
213 19 112 20 141 3 148 -8 3 -58 -11 -113 -31 -132 -48 -294 -64 -481 -48
-147 13 -201 31 -307 101 -157 105 -282 253 -383 457 -84 168 -98 220 -98 365
0 87 5 140 17 175 69 214 172 358 309 430 l71 37 -88 49 c-107 60 -205 139
-276 220 -29 34 -72 84 -96 111 -53 62 -102 158 -185 368 -92 232 -110 327
-104 540 5 179 14 225 74 375 71 179 137 298 219 396 138 162 177 200 239 231
33 17 79 44 103 60 54 37 151 82 312 145 l125 48 140 -1 c164 -2 305 -21 470
-65 145 -39 195 -46 195 -28 0 6 -46 82 -102 168 -111 170 -193 323 -226 422
-63 187 -85 387 -63 565 40 312 213 596 437 711 185 95 403 160 567 169 152 8
499 -12 621 -36 196 -39 754 -226 952 -320 59 -27 111 -50 115 -50 15 0 10 34
-23 167 -30 115 -33 142 -32 268 1 149 25 289 80 455 61 183 243 365 476 475
130 61 170 68 372 63 162 -5 176 -7 261 -38 175 -63 283 -121 465 -251 159
-113 291 -238 416 -395 64 -79 120 -144 124 -144 14 0 19 15 30 90 24 172 187
450 263 450 9 0 46 16 83 36 127 67 302 69 454 3 95 -41 203 -130 297 -246
128 -156 160 -190 171 -178 6 6 24 46 42 90 44 111 145 303 214 408 33 49 93
120 137 161 212 200 586 433 794 495 39 12 113 26 165 31 117 11 506 5 655
-10z"/>
<path d="M8992 15128 c2 -12 11 -24 21 -26 14 -3 18 1 15 20 -2 12 -11 24 -21
26 -14 3 -18 -1 -15 -20z"/>
<path d="M10154 15105 c-9 -23 3 -174 17 -214 9 -24 14 -29 20 -19 10 15 10
182 0 217 -8 30 -29 39 -37 16z"/>
<path d="M9376 15054 c-3 -9 -6 -48 -5 -87 1 -68 1 -71 14 -42 19 44 23 145 6
145 -5 0 -12 -7 -15 -16z"/>
<path d="M9870 14993 c0 -62 9 -93 26 -93 21 0 22 62 2 113 -16 41 -28 33 -28
-20z"/>
<path d="M14250 15023 c-42 -16 -47 -53 -7 -53 19 0 107 45 107 55 0 7 -82 5
-100 -2z"/>
<path d="M12165 14990 c-4 -7 -3 -16 3 -22 14 -14 45 -2 40 15 -6 16 -34 21
-43 7z"/>
<path d="M9676 14962 c-21 -35 -24 -298 -3 -318 24 -24 43 102 34 229 -5 76
-17 111 -31 89z"/>
<path d="M11802 14915 c-34 -52 -49 -92 -38 -102 20 -20 83 93 74 133 -3 15
-12 7 -36 -31z"/>
<path d="M14710 14931 c0 -10 7 -24 15 -31 12 -10 16 -9 21 4 3 9 4 23 0 31
-8 21 -36 19 -36 -4z"/>
<path d="M5063 14764 c-8 -21 13 -42 28 -27 13 13 5 43 -11 43 -6 0 -13 -7
-17 -16z"/>
<path d="M13987 14717 c-24 -38 -29 -70 -14 -91 30 -41 83 16 75 80 -4 39 -39
44 -61 11z"/>
<path d="M4800 14641 c-11 -21 -14 -61 -4 -61 14 0 42 21 48 36 6 17 -9 44
-25 44 -5 0 -13 -9 -19 -19z"/>
<path d="M10220 14589 c0 -11 5 -17 10 -14 6 3 10 13 10 21 0 8 -4 14 -10 14
-5 0 -10 -9 -10 -21z"/>
<path d="M12575 14492 c4 -101 18 -152 43 -160 19 -6 14 32 -18 153 l-30 110
5 -103z"/>
<path d="M13903 14574 c-7 -19 9 -76 23 -81 18 -6 25 27 13 64 -11 35 -26 43
-36 17z"/>
<path d="M5942 14553 c2 -11 14 -19 31 -21 29 -4 35 6 15 26 -19 19 -50 15
-46 -5z"/>
<path d="M7181 14522 c-12 -22 3 -42 31 -42 24 0 34 26 18 45 -17 20 -37 19
-49 -3z"/>
<path d="M13641 14498 c-36 -48 -39 -68 -12 -68 26 0 61 46 61 81 0 40 -13 36
-49 -13z"/>
<path d="M14082 14437 c-34 -90 -25 -160 12 -89 21 40 29 93 18 122 -8 23 -10
20 -30 -33z"/>
<path d="M5780 14412 c0 -10 33 -42 43 -42 12 0 7 18 -9 34 -17 17 -34 21 -34
8z"/>
<path d="M11416 14409 c-9 -26 -37 -241 -32 -246 9 -10 28 10 42 44 17 40 20
191 5 206 -7 7 -12 6 -15 -4z"/>
<path d="M11551 14337 c-14 -35 -14 -54 -1 -62 17 -10 32 37 22 65 l-10 25
-11 -28z"/>
<path d="M13195 14283 l-46 -78 56 58 c30 32 55 67 55 77 0 37 -18 20 -65 -57z"/>
<path d="M10431 14336 c-9 -10 -8 -16 4 -26 20 -16 38 -1 29 23 -8 21 -18 22
-33 3z"/>
<path d="M15262 14302 c-8 -13 -11 -31 -7 -39 9 -26 27 0 23 33 l-3 29 -13
-23z"/>
<path d="M9578 14274 c-11 -11 -10 -292 1 -298 15 -10 23 25 28 124 4 93 -12
191 -29 174z"/>
<path d="M10001 14220 c0 -61 1 -64 14 -40 19 32 19 61 0 86 -13 17 -14 13
-14 -46z"/>
<path d="M7313 14244 c-11 -29 4 -140 26 -188 18 -43 23 -47 37 -35 24 19 15
130 -15 192 -24 49 -37 58 -48 31z"/>
<path d="M5876 14241 c-7 -10 20 -41 35 -41 5 0 9 7 9 15 0 18 -36 39 -44 26z"/>
<path d="M8742 14192 c3 -33 12 -60 23 -70 16 -16 17 -14 13 36 -3 33 -12 60
-23 70 -16 16 -17 14 -13 -36z"/>
<path d="M8081 14199 c-14 -39 -15 -139 -1 -139 20 0 41 61 38 112 -3 60 -21
73 -37 27z"/>
<path d="M8460 14175 c0 -14 5 -25 10 -25 6 0 10 11 10 25 0 14 -4 25 -10 25
-5 0 -10 -11 -10 -25z"/>
<path d="M16570 14160 c-25 -16 -43 -30 -40 -30 38 4 106 30 108 44 5 24 -18
20 -68 -14z"/>
<path d="M15402 14120 c-7 -31 -8 -58 -3 -74 10 -24 34 -40 45 -29 15 16 -2
121 -24 146 -3 4 -12 -15 -18 -43z"/>
<path d="M9073 14126 c-43 -37 -57 -76 -50 -148 3 -33 9 -64 14 -69 12 -12 95
185 91 213 -4 31 -22 32 -55 4z"/>
<path d="M10360 14085 c-14 -38 -12 -185 4 -213 11 -21 14 -22 26 -7 17 20 25
157 13 204 -11 44 -30 50 -43 16z"/>
<path d="M10586 14088 c-9 -35 -6 -326 3 -303 16 39 34 205 28 257 -7 59 -21
81 -31 46z"/>
<path d="M12065 14047 c-4 -10 -5 -21 -1 -24 10 -10 18 4 13 24 -4 17 -4 17
-12 0z"/>
<path d="M14946 14044 c-11 -30 -6 -37 14 -19 11 10 20 22 20 27 0 15 -28 9
-34 -8z"/>
<path d="M17194 14025 c-8 -20 3 -48 16 -40 13 8 13 55 0 55 -6 0 -13 -7 -16
-15z"/>
<path d="M16720 13988 c-25 -41 -28 -87 -5 -68 24 20 57 79 50 90 -11 18 -25
11 -45 -22z"/>
<path d="M10057 13963 c-21 -41 -27 -76 -18 -92 13 -20 29 -5 41 37 20 75 5
111 -23 55z"/>
<path d="M11136 13914 c-3 -9 -6 -45 -6 -80 0 -67 13 -83 30 -38 17 45 11 134
-10 134 -4 0 -11 -7 -14 -16z"/>
<path d="M9700 13898 c-14 -29 -7 -62 12 -56 20 7 28 45 13 64 -13 18 -14 17
-25 -8z"/>
<path d="M17057 13851 c-44 -49 -81 -118 -67 -126 14 -8 60 18 94 54 30 31 43
100 20 108 -6 2 -27 -14 -47 -36z"/>
<path d="M12167 13863 c-10 -10 -8 -103 2 -103 12 0 21 26 21 58 0 31 -13 56
-23 45z"/>
<path d="M11350 13825 c-16 -20 -26 -95 -12 -95 12 0 62 79 62 98 0 17 -35 15
-50 -3z"/>
<path d="M14147 13833 c-13 -12 -7 -33 8 -33 8 0 15 9 15 20 0 20 -11 26 -23
13z"/>
<path d="M4593 13748 c7 -73 47 -200 65 -206 23 -7 6 120 -30 215 -27 73 -42
69 -35 -9z"/>
<path d="M5237 13790 c-8 -32 24 -85 56 -88 35 -4 43 17 23 57 -25 48 -70 66
-79 31z"/>
<path d="M6170 13775 c0 -11 9 -33 20 -50 l20 -30 0 26 c0 15 -9 37 -20 50
-18 23 -19 23 -20 4z"/>
<path d="M13047 13759 c-39 -23 -90 -187 -69 -225 8 -14 13 -11 34 17 26 35
78 156 78 182 0 23 -23 37 -43 26z"/>
<path d="M6976 13745 c-7 -21 20 -69 34 -60 15 9 12 31 -8 55 -17 21 -19 22
-26 5z"/>
<path d="M14185 13729 c-4 -6 -4 -13 -1 -16 8 -8 36 5 36 17 0 13 -27 13 -35
-1z"/>
<path d="M8506 13704 c-14 -36 -28 -229 -18 -254 l9 -25 21 35 c12 19 24 54
28 77 8 54 -3 145 -20 168 -12 17 -13 17 -20 -1z"/>
<path d="M13747 13674 c-14 -27 -25 -63 -41 -136 -4 -17 -2 -28 4 -28 14 0 47
56 66 114 15 43 15 50 1 63 -14 14 -17 12 -30 -13z"/>
<path d="M12606 13675 c-10 -26 -7 -163 3 -170 17 -10 23 15 23 92 0 73 -13
112 -26 78z"/>
<path d="M17662 13668 c-13 -13 -16 -88 -4 -88 17 0 32 26 32 56 0 37 -11 49
-28 32z"/>
<path d="M2735 13661 c-8 -13 112 -111 136 -111 27 0 24 14 -11 54 -43 48
-111 79 -125 57z"/>
<path d="M15572 13620 c0 -19 2 -27 5 -17 2 9 2 25 0 35 -3 9 -5 1 -5 -18z"/>
<path d="M4960 13634 c-1 -34 43 -129 80 -174 23 -28 45 -49 47 -46 7 7 -74
168 -101 201 -14 17 -25 25 -26 19z"/>
<path d="M11797 13633 c-11 -10 -8 -123 3 -123 14 0 30 35 30 69 0 49 -15 73
-33 54z"/>
<path d="M8007 13577 c-6 -17 37 -145 54 -161 16 -15 6 102 -12 140 -16 32
-34 41 -42 21z"/>
<path d="M14560 13548 c-21 -35 -27 -74 -10 -63 10 6 50 78 50 90 0 16 -23 1
-40 -27z"/>
<path d="M13532 13545 c0 -16 2 -22 5 -12 2 9 2 23 0 30 -3 6 -5 -1 -5 -18z"/>
<path d="M3556 13522 c-8 -14 26 -41 62 -48 24 -5 32 -3 32 8 0 23 -83 58 -94
40z"/>
<path d="M3144 13478 c-12 -19 167 -170 183 -154 7 7 -151 166 -165 166 -6 0
-14 -5 -18 -12z"/>
<path d="M5368 13424 c-10 -9 25 -74 56 -103 l26 -24 0 27 c0 28 -69 113 -82
100z"/>
<path d="M3704 13405 c-8 -20 2 -33 54 -66 44 -28 82 -38 82 -21 0 11 -71 77
-97 91 -28 14 -33 14 -39 -4z"/>
<path d="M11592 13380 c0 -14 2 -19 5 -12 2 6 2 18 0 25 -3 6 -5 1 -5 -13z"/>
<path d="M2116 13381 c-8 -12 32 -61 50 -61 21 0 17 24 -9 48 -26 24 -33 26
-41 13z"/>
<path d="M11201 13362 c-11 -26 -8 -70 6 -95 9 -15 32 15 39 48 12 67 -22 103
-45 47z"/>
<path d="M14297 13338 c-18 -28 -41 -98 -34 -104 2 -2 16 23 31 57 28 61 30
90 3 47z"/>
<path d="M5239 13318 c-3 -25 3 -43 16 -57 12 -13 15 -13 20 1 7 18 -11 68
-25 68 -5 0 -11 -6 -11 -12z"/>
<path d="M8433 13314 c-3 -8 -1 -20 6 -27 8 -8 11 -4 11 16 0 30 -7 35 -17 11z"/>
<path d="M10486 13264 c-16 -49 -14 -64 10 -64 10 0 14 14 14 55 0 30 -2 55
-4 55 -2 0 -11 -21 -20 -46z"/>
<path d="M10780 13180 c1 -102 3 -121 13 -105 16 27 16 200 0 216 -11 10 -13
-12 -13 -111z"/>
<path d="M2340 13270 c0 -22 31 -70 45 -70 18 0 19 14 5 40 -13 24 -50 46 -50
30z"/>
<path d="M8084 13238 c3 -26 12 -62 21 -80 l15 -33 -4 52 c-3 29 -12 65 -21
80 l-16 28 5 -47z"/>
<path d="M15060 13253 c-7 -16 -14 -57 -17 -93 l-4 -65 17 29 c15 27 33 156
22 156 -3 0 -11 -12 -18 -27z"/>
<path d="M15509 13263 c-9 -10 -22 -29 -29 -43 -11 -23 -9 -22 20 6 18 18 31
37 28 44 -2 8 -9 5 -19 -7z"/>
<path d="M4214 13244 c3 -9 6 -18 6 -20 0 -2 5 -4 10 -4 6 0 10 9 10 20 0 12
-7 20 -16 20 -11 0 -14 -5 -10 -16z"/>
<path d="M11812 13214 c-16 -11 -22 -25 -22 -53 0 -49 21 -69 45 -44 20 19 45
74 45 98 0 20 -39 20 -68 -1z"/>
<path d="M12376 13202 c-10 -17 -18 -112 -11 -139 5 -22 8 -25 15 -12 16 28
30 109 24 134 -6 25 -18 32 -28 17z"/>
<path d="M9745 13156 c-8 -49 2 -126 15 -126 18 0 33 78 24 121 -12 58 -31 61
-39 5z"/>
<path d="M5700 13140 c0 -32 21 -82 48 -112 39 -45 37 -2 -4 90 -26 58 -44 67
-44 22z"/>
<path d="M2100 13141 c13 -25 33 -28 28 -4 -2 10 -11 19 -21 21 -16 3 -17 1
-7 -17z"/>
<path d="M11266 13148 c-10 -32 -13 -75 -6 -98 7 -24 8 -24 24 14 10 21 16 50
14 64 -3 28 -25 42 -32 20z"/>
<path d="M17134 13097 c-49 -60 -65 -72 -131 -97 -21 -8 -35 -22 -42 -42 -13
-37 -14 -68 -3 -68 19 0 242 242 242 263 0 18 -19 1 -66 -56z"/>
<path d="M5437 13104 c-12 -12 25 -74 44 -74 14 0 20 39 9 60 -10 19 -40 27
-53 14z"/>
<path d="M11614 13084 c-7 -26 0 -111 9 -120 22 -22 39 84 21 130 -9 24 -23
19 -30 -10z"/>
<path d="M12916 13088 c-20 -28 -21 -68 -3 -68 22 0 47 34 47 63 0 33 -23 36
-44 5z"/>
<path d="M6700 13088 c0 -16 58 -117 86 -151 28 -33 29 -28 9 39 -20 68 -95
156 -95 112z"/>
<path d="M3506 13082 c-7 -12 22 -38 31 -28 4 3 0 14 -9 22 -9 10 -18 12 -22
6z"/>
<path d="M16712 13083 c-37 -15 -102 -152 -102 -213 l1 -35 29 34 c41 48 100
163 100 195 0 26 -4 29 -28 19z"/>
<path d="M15757 13043 c-28 -38 -44 -79 -33 -90 10 -10 38 20 57 62 33 72 21
87 -24 28z"/>
<path d="M11116 13061 c-4 -5 -5 -20 -2 -33 15 -71 17 -78 27 -72 7 4 9 25 6
51 -5 47 -20 73 -31 54z"/>
<path d="M8456 13045 c-11 -30 -6 -91 9 -111 13 -17 14 -14 15 41 0 64 -12
100 -24 70z"/>
<path d="M13392 13048 c-14 -14 -16 -44 -3 -53 14 -8 30 27 22 48 -5 14 -9 15
-19 5z"/>
<path d="M2744 13025 c-4 -8 2 -27 12 -43 24 -37 120 -132 133 -132 36 0 -30
127 -86 165 -44 29 -52 30 -59 10z"/>
<path d="M7500 12996 c0 -45 19 -96 36 -96 8 0 14 9 14 21 0 20 -37 109 -45
109 -3 0 -5 -15 -5 -34z"/>
<path d="M13793 13018 c-17 -21 -25 -56 -14 -62 16 -10 44 40 34 59 -8 13 -11
14 -20 3z"/>
<path d="M11030 12990 c0 -18 4 -29 10 -25 6 3 10 15 10 25 0 10 -4 22 -10 25
-6 4 -10 -7 -10 -25z"/>
<path d="M8922 12980 c0 -19 2 -27 5 -17 2 9 2 25 0 35 -3 9 -5 1 -5 -18z"/>
<path d="M15106 12976 c-20 -18 -36 -38 -36 -44 0 -13 28 -42 40 -42 35 0 70
47 70 95 0 36 -30 33 -74 -9z"/>
<path d="M15620 12991 c0 -15 6 -21 21 -21 14 0 19 5 17 17 -5 26 -38 29 -38
4z"/>
<path d="M10146 12992 c-16 -26 -30 -170 -19 -194 11 -23 11 -22 28 16 9 22
16 64 16 98 0 60 -13 100 -25 80z"/>
<path d="M3250 12973 c0 -5 7 -18 15 -29 12 -16 14 -16 15 -3 0 9 -7 22 -15
29 -8 7 -15 8 -15 3z"/>
<path d="M11802 12968 c-15 -15 -16 -84 -1 -94 17 -10 29 16 29 64 0 43 -7 51
-28 30z"/>
<path d="M14123 12955 c-15 -28 -63 -174 -63 -191 0 -26 19 -24 39 5 30 41 55
145 43 179 -8 26 -9 26 -19 7z"/>
<path d="M16218 12943 c-16 -19 -38 -58 -38 -67 0 -19 33 -1 50 27 31 50 22
79 -12 40z"/>
<path d="M14261 12921 c-14 -25 -4 -53 18 -49 21 4 26 41 7 57 -12 10 -17 9
-25 -8z"/>
<path d="M7145 12900 c9 -16 20 -30 25 -30 14 0 13 7 -6 35 -23 35 -38 31 -19
-5z"/>
<path d="M11540 12916 c0 -24 29 -90 36 -83 10 10 -5 74 -21 87 -12 10 -15 9
-15 -4z"/>
<path d="M16339 12889 c-70 -86 -111 -179 -79 -179 26 0 125 172 118 207 -2
12 -13 4 -39 -28z"/>
<path d="M10497 12894 c-14 -14 -7 -62 12 -85 18 -22 20 -22 26 -6 12 31 -20
109 -38 91z"/>
<path d="M12102 12865 c-28 -94 -27 -160 2 -136 18 15 26 75 17 131 l-7 45
-12 -40z"/>
<path d="M2342 12864 c1 -9 9 -19 16 -22 9 -3 13 2 10 14 -1 9 -9 19 -16 22
-9 3 -13 -2 -10 -14z"/>
<path d="M15976 12857 c-31 -31 -36 -63 -8 -48 21 11 48 58 39 67 -3 3 -17 -5
-31 -19z"/>
<path d="M8922 12830 c0 -19 2 -27 5 -17 2 9 2 25 0 35 -3 9 -5 1 -5 -18z"/>
<path d="M11113 12815 c0 -27 2 -38 4 -22 2 15 2 37 0 50 -2 12 -4 0 -4 -28z"/>
<path d="M7885 12814 c4 -22 14 -55 23 -74 l16 -35 3 30 c5 36 -19 107 -37
113 -10 4 -11 -4 -5 -34z"/>
<path d="M11401 12813 c-6 -21 -13 -67 -16 -103 l-6 -65 17 30 c16 28 34 175
21 175 -3 0 -11 -17 -16 -37z"/>
<path d="M9748 12759 c-10 -131 14 -241 33 -151 7 35 -5 165 -20 204 -6 16 -9
1 -13 -53z"/>
<path d="M6510 12794 c0 -15 10 -43 23 -63 l22 -36 3 34 c4 40 -15 91 -34 91
-8 0 -14 -11 -14 -26z"/>
<path d="M7350 12795 c0 -14 21 -45 31 -45 18 0 5 45 -13 48 -10 2 -18 1 -18
-3z"/>
<path d="M7577 12793 c-17 -17 7 -113 28 -113 19 0 19 40 1 85 -16 37 -18 39
-29 28z"/>
<path d="M15016 12764 c-9 -23 -7 -67 3 -83 21 -33 48 30 31 73 -11 29 -25 34
-34 10z"/>
<path d="M14416 12755 c-3 -9 -6 -33 -6 -53 l1 -37 20 24 c21 25 23 72 3 78
-6 2 -14 -3 -18 -12z"/>
<path d="M9216 12728 c-8 -30 -8 -132 0 -152 3 -9 12 -16 20 -16 11 0 14 18
14 79 0 80 -6 111 -20 111 -4 0 -10 -10 -14 -22z"/>
<path d="M17986 12646 c-73 -74 -92 -106 -62 -106 25 0 157 162 143 176 -3 4
-40 -28 -81 -70z"/>
<path d="M10525 12676 c-21 -15 -36 -126 -17 -126 13 0 62 81 62 102 0 27 -24
40 -45 24z"/>
<path d="M4202 12664 c1 -9 9 -19 16 -22 9 -3 13 2 10 14 -1 9 -9 19 -16 22
-9 3 -13 -2 -10 -14z"/>
<path d="M12423 12668 c-16 -20 -33 -78 -33 -109 0 -40 22 -37 60 9 37 45 40
105 4 110 -11 2 -25 -3 -31 -10z"/>
<path d="M3451 12654 c0 -11 3 -14 6 -6 3 7 2 16 -1 19 -3 4 -6 -2 -5 -13z"/>
<path d="M10812 12635 c0 -16 2 -22 5 -12 2 9 2 23 0 30 -3 6 -5 -1 -5 -18z"/>
<path d="M11450 12645 c-10 -12 -15 -39 -15 -79 1 -66 21 -119 36 -95 10 16
10 132 0 168 -6 22 -7 23 -21 6z"/>
<path d="M15521 12568 c-8 -21 -8 -35 -1 -42 5 -5 10 -7 10 -4 0 3 7 22 15 42
13 31 13 36 1 36 -8 0 -19 -14 -25 -32z"/>
<path d="M14042 12543 c-26 -49 -27 -63 -7 -63 21 0 37 35 33 73 l-3 32 -23
-42z"/>
<path d="M3050 12547 c0 -8 7 -21 16 -28 14 -11 15 -10 12 11 -3 26 -28 41
-28 17z"/>
<path d="M16100 12515 c0 -8 4 -15 9 -15 5 0 14 7 21 15 10 13 9 15 -9 15 -12
0 -21 -6 -21 -15z"/>
<path d="M14447 12486 c-6 -16 2 -28 14 -20 12 7 11 34 0 34 -5 0 -11 -6 -14
-14z"/>
<path d="M10175 12470 c-8 -14 3 -30 21 -30 8 0 14 9 14 20 0 21 -24 28 -35
10z"/>
<path d="M12766 12458 c-20 -32 -29 -68 -18 -68 14 0 62 59 62 76 0 22 -28 17
-44 -8z"/>
<path d="M12406 12454 c-3 -9 -6 -27 -6 -42 0 -34 17 -17 26 26 7 33 -9 46
-20 16z"/>
<path d="M15152 12458 c-14 -14 -16 -38 -2 -38 9 0 30 31 30 44 0 10 -15 7
-28 -6z"/>
<path d="M17262 12439 c-36 -24 -115 -127 -106 -140 9 -15 25 -10 60 19 19 15
50 40 69 56 27 22 35 35 33 54 -4 34 -16 36 -56 11z"/>
<path d="M7391 12431 c-6 -11 -11 -33 -11 -50 0 -51 61 -95 77 -55 8 22 -13
88 -36 108 -19 17 -20 17 -30 -3z"/>
<path d="M8263 12410 c0 -25 2 -35 4 -22 2 12 2 32 0 45 -2 12 -4 2 -4 -23z"/>
<path d="M3427 12424 c-25 -25 17 -137 58 -156 21 -9 29 -9 41 4 15 14 14 19
0 50 -19 40 -89 112 -99 102z"/>
<path d="M10064 12416 c-8 -21 3 -66 16 -66 13 0 13 67 0 75 -6 3 -13 -1 -16
-9z"/>
<path d="M18007 12392 c-21 -21 -37 -41 -37 -45 0 -12 70 35 80 54 18 33 -7
28 -43 -9z"/>
<path d="M2447 12403 c-9 -9 33 -53 50 -53 18 0 16 25 -3 44 -16 17 -36 21
-47 9z"/>
<path d="M13998 12391 c-38 -31 -56 -91 -26 -91 14 0 60 78 56 95 -3 15 -6 15
-30 -4z"/>
<path d="M11056 12391 c-10 -16 -19 -158 -12 -178 7 -17 8 -17 18 1 15 27 24
186 10 186 -6 0 -13 -4 -16 -9z"/>
<path d="M11710 12390 c0 -6 8 -25 17 -43 l18 -32 3 28 c3 28 -12 57 -29 57
-5 0 -9 -5 -9 -10z"/>
<path d="M15082 12368 c-7 -7 -12 -16 -12 -20 0 -12 28 -10 36 3 10 17 -10 31
-24 17z"/>
<path d="M9752 12335 c0 -16 2 -22 5 -12 2 9 2 23 0 30 -3 6 -5 -1 -5 -18z"/>
<path d="M10778 12343 c-19 -22 -49 -123 -37 -123 15 0 71 122 62 131 -6 6
-16 2 -25 -8z"/>
<path d="M12742 12344 c-21 -15 -31 -64 -13 -64 14 0 62 61 55 71 -7 13 -16
11 -42 -7z"/>
<path d="M12832 12288 c-7 -7 -12 -21 -12 -32 0 -18 1 -19 20 -1 20 18 27 45
12 45 -4 0 -13 -5 -20 -12z"/>
<path d="M13056 12284 c-10 -26 -7 -44 8 -44 20 0 29 16 21 40 -8 24 -21 26
-29 4z"/>
<path d="M2722 12253 c12 -20 24 -31 26 -25 4 13 -26 62 -39 62 -4 0 1 -16 13
-37z"/>
<path d="M3310 12261 c0 -11 131 -123 137 -117 9 8 -30 64 -59 86 -34 25 -78
43 -78 31z"/>
<path d="M14637 12243 c-2 -4 -7 -21 -11 -38 -4 -16 -19 -56 -33 -88 -22 -49
-24 -60 -12 -68 27 -17 58 -10 76 17 24 38 26 177 1 182 -9 2 -18 -1 -21 -5z"/>
<path d="M6434 12226 c-7 -19 20 -71 48 -90 12 -9 24 -14 26 -11 2 2 -7 29
-21 59 -26 56 -43 69 -53 42z"/>
<path d="M6883 12201 c7 -36 46 -105 54 -97 9 8 -27 104 -44 118 -15 12 -16 9
-10 -21z"/>
<path d="M5517 12193 c-7 -11 56 -145 76 -162 9 -7 24 -10 34 -6 15 5 13 9
-12 19 -32 14 -50 42 -60 100 -7 36 -29 64 -38 49z"/>
<path d="M15633 12178 c-6 -7 -16 -24 -23 -38 l-13 -25 22 20 c27 24 46 55 33
55 -5 0 -14 -6 -19 -12z"/>
<path d="M6245 12170 c-7 -12 12 -50 26 -50 16 0 22 29 9 45 -14 17 -26 19
-35 5z"/>
<path d="M13921 12109 c-34 -76 -52 -169 -33 -169 30 0 96 210 73 233 -4 4
-22 -24 -40 -64z"/>
<path d="M4272 12118 c26 -36 111 -84 128 -73 26 16 6 38 -64 71 -41 19 -78
34 -82 34 -3 0 4 -15 18 -32z"/>
<path d="M13332 12125 c-14 -31 -16 -92 -2 -100 12 -8 50 67 50 100 0 34 -33
34 -48 0z"/>
<path d="M15783 12135 c-3 -9 -3 -18 0 -21 9 -9 27 6 27 22 0 19 -19 18 -27
-1z"/>
<path d="M10932 12115 c-9 -18 -8 -35 2 -67 36 -116 62 -130 53 -30 -5 65 -23
122 -37 122 -4 0 -12 -11 -18 -25z"/>
<path d="M10577 12119 c-21 -12 -47 -61 -47 -87 0 -31 24 -45 42 -24 21 25 38
69 38 97 0 27 -6 30 -33 14z"/>
<path d="M7477 12086 c-9 -22 2 -46 20 -46 10 0 12 6 8 23 -10 32 -21 41 -28
23z"/>
<path d="M5362 12078 c5 -15 58 -24 58 -10 0 11 -24 22 -47 22 -8 0 -13 -6
-11 -12z"/>
<path d="M18860 12065 c-9 -11 -10 -19 -3 -26 7 -7 14 -5 23 6 9 11 10 19 3
26 -7 7 -14 5 -23 -6z"/>
<path d="M12460 12025 c-15 -38 -43 -192 -37 -208 7 -20 28 42 44 131 16 90
13 125 -7 77z"/>
<path d="M13592 12038 c-14 -14 -16 -44 -3 -52 16 -10 35 23 25 45 -7 16 -12
17 -22 7z"/>
<path d="M11122 12008 c-14 -14 -16 -38 -2 -38 13 0 32 38 22 44 -5 3 -14 0
-20 -6z"/>
<path d="M16992 12008 c-7 -7 -12 -25 -12 -42 0 -28 0 -29 20 -11 20 19 27 50
12 59 -5 3 -14 0 -20 -6z"/>
<path d="M7686 11968 c17 -55 27 -73 31 -56 4 16 -22 78 -33 78 -3 0 -2 -10 2
-22z"/>
<path d="M8810 11969 c0 -11 5 -17 10 -14 6 3 10 13 10 21 0 8 -4 14 -10 14
-5 0 -10 -9 -10 -21z"/>
<path d="M19151 11966 c-8 -10 -7 -17 3 -26 17 -13 36 -6 36 15 0 19 -27 26
-39 11z"/>
<path d="M6530 11942 c0 -30 93 -133 106 -119 8 7 -20 59 -52 96 -24 29 -54
42 -54 23z"/>
<path d="M12904 11915 c-16 -38 -48 -174 -58 -242 -7 -50 8 -64 27 -26 23 45
77 213 84 260 5 39 4 43 -16 43 -16 0 -26 -10 -37 -35z"/>
<path d="M15961 11884 c-40 -46 -56 -79 -26 -54 26 21 78 91 72 96 -2 3 -23
-16 -46 -42z"/>
<path d="M17785 11898 c-53 -29 -116 -108 -87 -108 16 0 88 57 105 83 26 40
21 47 -18 25z"/>
<path d="M8762 11870 c0 -14 2 -19 5 -12 2 6 2 18 0 25 -3 6 -5 1 -5 -13z"/>
<path d="M9907 11864 c-11 -11 -8 -62 4 -70 22 -13 33 14 18 47 -8 16 -18 27
-22 23z"/>
<path d="M11993 11805 c0 -38 2 -53 4 -32 2 20 2 52 0 70 -2 17 -4 1 -4 -38z"/>
<path d="M16750 11793 c-53 -72 -69 -108 -53 -124 19 -19 44 5 77 75 65 137
55 156 -24 49z"/>
<path d="M14432 11815 c-30 -60 -56 -155 -44 -167 6 -6 11 5 16 30 3 21 17 65
32 96 30 65 27 100 -4 41z"/>
<path d="M11285 11750 c-3 -5 -1 -18 4 -27 9 -16 10 -14 11 10 0 28 -5 34 -15
17z"/>
<path d="M4180 11730 c0 -15 5 -20 18 -18 9 2 17 10 17 18 0 8 -8 16 -17 18
-13 2 -18 -3 -18 -18z"/>
<path d="M8276 11739 c-3 -8 -7 -32 -8 -54 l-3 -40 -285 -3 c-300 -2 -342 3
-378 46 -7 9 -11 11 -7 5 3 -7 3 -13 -2 -14 -40 -4 -77 -11 -125 -25 -48 -14
-59 -22 -68 -47 -20 -60 -9 -116 27 -133 10 -4 63 -11 118 -14 94 -5 100 -6
103 -27 5 -32 38 -30 46 2 11 44 57 29 124 -42 l42 -46 -5 -586 c-5 -520 -13
-719 -31 -765 -10 -26 -38 -30 -212 -30 l-174 -1 -25 -29 c-22 -26 -25 -37
-21 -83 3 -29 7 -56 10 -59 4 -3 262 -6 575 -7 l568 -1 27 27 c15 15 31 27 35
27 4 0 21 -44 36 -98 37 -125 67 -196 79 -184 15 15 -16 173 -46 238 -14 31
-26 60 -26 64 0 4 15 13 33 20 78 30 134 60 154 82 12 12 45 70 73 128 29 58
61 112 71 120 43 34 69 233 72 545 2 209 0 238 -21 318 -12 49 -22 100 -22
113 0 32 -170 241 -258 316 -36 31 -87 66 -112 79 -25 12 -53 31 -62 43 -16
19 -27 21 -145 21 l-128 0 -3 45 c-3 47 -18 74 -26 49z m35 -275 l67 -7 6 -52
c7 -62 15 -85 27 -85 12 0 12 56 0 98 -11 38 -11 38 64 12 167 -58 257 -154
315 -339 50 -158 73 -286 66 -368 -9 -113 -83 -433 -128 -557 l-22 -59 -112
-53 c-62 -29 -118 -61 -126 -72 -12 -17 -26 -18 -205 -13 -242 7 -237 4 -241
149 -2 80 0 94 10 79 7 -11 35 -52 61 -93 43 -65 77 -94 77 -64 0 26 -31 80
-64 113 -20 20 -36 44 -36 53 0 10 -11 36 -24 59 l-25 41 -7 535 -7 535 73 47
c80 51 94 54 231 41z"/>
<path d="M8144 11276 c-13 -34 42 -166 68 -166 15 0 3 82 -21 136 -20 45 -37
56 -47 30z"/>
<path d="M8046 10594 c-11 -27 -6 -61 9 -74 13 -11 15 -6 15 39 0 50 -12 67
-24 35z"/>
<path d="M8105 10356 c-16 -12 -17 -17 -6 -44 17 -42 48 -69 62 -55 15 15 14
80 -1 98 -15 19 -31 19 -55 1z"/>
<path d="M19627 11735 c-9 -22 3 -46 22 -43 10 2 16 13 16 28 0 28 -29 40 -38
15z"/>
<path d="M9455 11730 c-9 -14 41 -68 52 -57 3 4 2 20 -3 35 -10 29 -37 41 -49
22z"/>
<path d="M19303 11700 c-28 -34 -28 -40 -5 -40 23 0 42 19 42 41 0 29 -14 28
-37 -1z"/>
<path d="M6620 11707 c0 -18 28 -42 37 -33 9 8 -9 38 -25 44 -7 2 -12 -3 -12
-11z"/>
<path d="M16397 11669 c-21 -3 -50 -17 -64 -31 -40 -40 -39 -85 2 -248 28
-109 38 -174 42 -260 5 -105 3 -122 -21 -198 -14 -46 -26 -86 -26 -90 1 -4 12
7 25 23 l25 30 0 -71 c0 -96 15 -166 49 -241 34 -72 70 -101 109 -87 33 12 70
65 77 113 3 20 14 63 25 96 24 72 25 81 5 65 -20 -17 -20 -7 5 210 36 317 49
384 95 499 16 38 24 73 21 87 -16 64 -236 125 -369 103z"/>
<path d="M10880 11630 c0 -15 5 -20 18 -18 9 2 17 10 17 18 0 8 -8 16 -17 18
-13 2 -18 -3 -18 -18z"/>
<path d="M14683 11598 c-20 -25 -44 -80 -40 -91 2 -7 16 12 31 41 26 51 31 77
9 50z"/>
<path d="M1835 11590 c-9 -14 31 -67 56 -75 53 -17 47 49 -7 71 -40 17 -41 17
-49 4z"/>
<path d="M17220 11585 c-10 -12 -9 -16 4 -21 22 -8 46 2 46 21 0 19 -34 20
-50 0z"/>
<path d="M4347 11572 c-24 -26 -21 -43 11 -68 l27 -22 0 -209 c0 -114 -2 -253
-5 -307 l-5 -100 33 -19 c49 -29 93 -16 159 46 l54 51 -6 71 c-8 90 10 264 32
312 29 60 59 75 159 80 115 6 142 -9 186 -104 27 -57 32 -78 31 -142 0 -64 -7
-94 -42 -185 -43 -114 -47 -143 -32 -192 6 -16 11 -87 13 -157 l4 -128 -28 6
c-24 6 -28 3 -28 -15 0 -29 25 -87 53 -120 20 -23 25 -43 31 -124 7 -111 -6
-220 -33 -256 -27 -37 -115 -68 -211 -74 -58 -4 -88 -10 -101 -22 -26 -23 -25
-84 1 -117 l20 -25 382 -5 c211 -4 399 -9 418 -12 30 -5 41 0 77 32 l43 38
-19 40 c-24 53 -54 66 -179 74 -115 8 -145 22 -173 82 -15 30 -18 109 -23 662
l-6 628 28 29 c57 56 170 71 246 33 85 -43 116 -116 126 -293 5 -74 14 -150
20 -169 16 -42 63 -64 119 -55 l39 6 7 351 c7 345 7 351 -13 367 -17 15 -67
18 -368 23 -191 4 -501 7 -689 7 -319 0 -343 -1 -358 -18z"/>
<path d="M7210 11543 c1 -94 46 -253 73 -253 17 0 0 159 -25 229 -29 81 -48
91 -48 24z"/>
<path d="M15076 11554 c-21 -20 -21 -45 -1 -38 20 8 38 41 26 48 -5 4 -17 -1
-25 -10z"/>
<path d="M16135 11529 c-6 -28 -1 -48 10 -37 3 2 8 19 11 36 8 42 -12 43 -21
1z"/>
<path d="M11162 11520 c0 -14 2 -19 5 -12 2 6 2 18 0 25 -3 6 -5 1 -5 -13z"/>
<path d="M16992 11508 c-14 -14 -16 -38 -3 -38 10 0 26 39 19 46 -2 2 -10 -2
-16 -8z"/>
<path d="M12833 11482 c-33 -21 -82 -200 -52 -190 8 2 19 18 24 34 6 16 20 43
33 58 31 40 27 118 -5 98z"/>
<path d="M1519 11458 c-6 -83 18 -190 50 -229 11 -13 22 -22 25 -19 3 3 -3 39
-14 80 -10 41 -24 101 -30 133 -11 57 -29 76 -31 35z"/>
<path d="M3650 11458 c0 -14 99 -181 121 -202 21 -22 7 20 -31 94 -42 79 -90
138 -90 108z"/>
<path d="M18387 11392 c-53 -88 -61 -119 -21 -81 61 56 114 159 82 159 -8 0
-35 -35 -61 -78z"/>
<path d="M2500 11432 c0 -25 37 -59 51 -45 6 6 3 18 -11 36 -25 31 -40 35 -40
9z"/>
<path d="M12368 11426 c-11 -26 -5 -56 11 -56 16 0 33 39 26 60 -9 27 -23 25
-37 -4z"/>
<path d="M15245 11389 c-4 -6 -4 -13 -1 -16 8 -8 36 5 36 17 0 13 -27 13 -35
-1z"/>
<path d="M5920 11371 c0 -17 40 -136 51 -151 19 -27 1 76 -21 120 -20 39 -30
49 -30 31z"/>
<path d="M11752 11359 c-10 -25 -15 -83 -13 -144 l2 -30 13 25 c19 35 26 99
17 140 l-8 35 -11 -26z"/>
<path d="M19101 11314 c-85 -78 -128 -134 -111 -144 20 -12 46 -1 85 38 35 35
101 149 92 159 -3 2 -32 -21 -66 -53z"/>
<path d="M9047 11314 c-12 -13 -7 -51 8 -64 12 -10 16 -9 21 3 13 35 -9 81
-29 61z"/>
<path d="M12347 11313 c-4 -3 -7 -22 -7 -42 l1 -36 19 24 c23 27 26 61 7 61
-8 0 -17 -3 -20 -7z"/>
<path d="M16035 11256 c-63 -61 -78 -86 -53 -86 34 0 148 111 148 145 0 20
-39 -4 -95 -59z"/>
<path d="M2242 11290 c0 -14 2 -19 5 -12 2 6 2 18 0 25 -3 6 -5 1 -5 -13z"/>
<path d="M4910 11248 c8 -41 34 -73 52 -62 11 7 4 29 -25 71 -29 44 -36 41
-27 -9z"/>
<path d="M13540 11248 c-23 -50 -27 -112 -7 -106 10 4 40 148 30 148 -2 0 -13
-19 -23 -42z"/>
<path d="M15363 11279 c-6 -8 -14 -28 -18 -44 l-7 -30 22 32 c22 33 25 68 3
42z"/>
<path d="M12950 11253 c0 -9 -16 -13 -47 -13 -125 -1 -244 -60 -351 -174 -69
-74 -97 -126 -87 -164 3 -15 30 -49 60 -77 l53 -50 98 1 c119 0 120 1 140 144
16 118 25 137 62 147 39 9 162 -14 194 -37 18 -13 43 -20 76 -20 78 0 152 -27
194 -71 40 -42 48 -68 36 -114 -9 -33 -90 -121 -128 -138 -14 -6 -117 -14
-230 -19 -288 -12 -282 -11 -337 -51 -60 -43 -106 -67 -131 -67 -11 0 -37 -19
-59 -43 -53 -58 -77 -141 -78 -272 0 -92 3 -105 31 -165 39 -82 146 -194 194
-203 18 -4 61 -7 97 -7 48 0 65 -4 70 -15 14 -38 137 -63 149 -31 3 8 51 29
107 47 56 17 130 47 165 67 80 43 125 54 178 41 28 -7 46 -19 58 -40 11 -18
42 -42 79 -60 34 -17 72 -40 84 -51 25 -23 43 -17 43 16 0 20 6 24 46 30 26 3
64 6 85 6 36 0 42 4 69 48 60 94 81 147 87 221 7 83 -5 104 -68 121 -43 12
-92 -3 -119 -35 -14 -17 -15 -16 -21 11 l-6 29 -12 -30 c-7 -16 -15 -55 -18
-85 -6 -61 -21 -80 -66 -80 -41 0 -63 15 -76 51 -7 21 -11 168 -11 439 0 334
-3 415 -15 457 -18 61 -58 99 -113 108 -28 5 -49 20 -84 58 l-46 52 -168 3
c-116 2 -171 7 -176 15 -6 9 -8 9 -8 0z m400 -768 c20 -21 25 -39 28 -93 l4
-67 -49 -60 c-62 -76 -175 -152 -288 -195 -77 -29 -103 -34 -180 -34 -70 -1
-98 3 -125 18 -158 85 -185 218 -71 350 21 24 41 50 43 56 1 5 30 15 63 20 70
12 425 14 425 3 0 -5 -9 -37 -20 -71 -11 -35 -20 -82 -20 -103 0 -36 2 -39 19
-30 25 14 51 72 51 115 0 59 24 104 57 109 15 2 31 5 34 6 3 0 16 -10 29 -24z"/>
<path d="M5210 11200 c0 -23 29 -76 54 -99 52 -48 44 6 -12 75 -27 34 -42 43
-42 24z"/>
<path d="M9344 11186 c-3 -9 -3 -27 0 -41 5 -21 1 -26 -36 -43 -24 -10 -50
-27 -58 -37 -14 -17 -15 -16 -21 11 -4 16 -5 -2 -3 -40 7 -107 25 -126 132
-135 70 -7 70 -6 104 -121 13 -45 25 -57 40 -42 10 10 -3 64 -37 145 -6 15 0
17 65 17 66 0 74 -2 101 -29 33 -34 32 -15 29 -311 0 -118 3 -238 9 -265 14
-73 -9 -218 -39 -250 -13 -14 -29 -25 -35 -25 -7 0 -20 -9 -30 -20 -16 -18
-31 -20 -130 -20 -129 0 -170 -11 -190 -51 -17 -32 -20 -102 -5 -129 22 -42
38 -44 470 -46 384 -2 418 -1 457 16 47 21 63 44 63 94 0 53 -32 71 -113 62
-72 -7 -182 8 -215 30 -38 25 -59 72 -75 168 -25 147 -28 175 -28 336 0 134 2
155 17 163 45 25 100 88 149 173 30 51 65 100 77 108 32 23 85 20 144 -8 76
-35 91 -59 124 -191 14 -58 31 -77 76 -84 l39 -6 7 -95 c3 -52 11 -113 16
-135 10 -40 10 -39 12 25 1 36 1 100 1 142 l0 78 53 52 c65 66 81 115 73 228
-6 100 -29 148 -82 177 -88 48 -297 55 -406 14 -42 -16 -71 -37 -113 -81 -45
-48 -62 -60 -87 -60 -44 0 -67 16 -84 58 -45 105 -114 128 -337 108 l-97 -9
-3 38 c-3 40 -24 58 -34 31z"/>
<path d="M11390 11181 c-106 -5 -156 -11 -184 -24 -43 -19 -198 -173 -247
-244 -17 -23 -39 -48 -50 -53 -11 -6 -29 -26 -39 -43 -19 -30 -20 -53 -20
-345 0 -271 2 -319 16 -349 10 -19 62 -81 117 -139 86 -90 111 -110 185 -147
81 -40 90 -42 166 -41 45 1 143 2 219 2 125 1 144 4 190 26 113 53 167 74 167
66 0 -5 7 -16 16 -25 22 -22 36 -2 23 33 -8 20 -5 27 16 44 43 33 74 99 86
181 10 67 9 80 -5 102 -20 31 -60 42 -85 24 -10 -8 -54 -42 -97 -77 -43 -35
-80 -59 -82 -53 -6 19 -20 12 -24 -11 -7 -49 -176 -118 -303 -125 l-80 -4 -85
69 c-159 129 -260 255 -260 323 0 48 56 94 145 121 16 5 211 8 432 8 471 -1
443 -7 443 104 0 35 7 80 15 99 19 46 19 87 1 87 -8 0 -17 -8 -21 -17 -5 -13
-12 0 -26 45 -45 143 -143 255 -286 327 -89 44 -108 46 -343 36z m216 -241
c68 -33 154 -117 154 -150 0 -61 -62 -120 -125 -120 -41 0 -41 0 -38 33 4 28
2 30 -9 15 -7 -9 -17 -24 -23 -32 -8 -14 -33 -17 -147 -19 -75 -1 -138 0 -141
3 -3 3 -7 61 -8 130 l-4 125 30 14 c98 48 214 48 311 1z m-380 -266 c-8 -21
-66 4 -77 33 -5 13 -9 42 -9 64 0 33 7 48 43 86 l42 46 3 -108 c1 -60 1 -114
-2 -121z"/>
<path d="M14364 11176 c-65 -29 -99 -108 -70 -164 9 -18 45 -48 88 -76 40 -25
81 -58 91 -74 20 -36 41 -171 32 -215 -3 -18 -18 -83 -32 -145 -26 -112 -26
-113 -8 -177 36 -134 18 -210 -75 -320 -62 -74 -78 -116 -56 -150 9 -13 25
-29 36 -35 11 -6 93 -12 187 -13 l168 -2 72 34 c61 28 78 32 105 25 17 -5 33
-14 35 -20 2 -6 -15 -33 -37 -60 -43 -52 -77 -140 -66 -170 5 -14 17 -3 55 55
27 40 57 90 66 112 10 21 26 41 35 44 10 3 89 7 175 8 150 2 158 3 175 25 11
13 22 43 26 68 8 56 -9 92 -52 110 -54 23 -57 32 -58 197 -1 123 2 159 16 189
11 26 22 36 32 32 17 -7 36 24 36 60 0 17 -5 26 -16 26 -15 0 -16 9 -10 61 11
109 25 138 98 210 38 37 68 74 68 82 0 23 49 57 82 57 42 0 92 -24 117 -56 23
-29 23 -31 18 -294 -3 -210 -8 -275 -21 -314 -20 -61 -20 -121 -1 -176 21 -60
20 -64 -27 -80 -69 -24 -109 -122 -70 -170 19 -24 25 -25 138 -25 l118 0 16
78 c13 65 19 80 40 90 16 8 26 23 28 41 l4 29 -26 -17 -26 -16 0 72 c0 40 4
88 10 107 6 23 5 58 -6 120 -13 73 -13 96 -2 151 27 136 10 319 -46 504 -28
90 -56 138 -99 170 -43 32 -138 29 -252 -8 -80 -26 -93 -34 -114 -66 -13 -20
-36 -44 -51 -53 -56 -33 -93 -19 -193 76 -85 81 -102 86 -198 54 -103 -35
-201 -36 -351 -2 -125 28 -160 30 -204 11z m638 -253 c8 -10 27 -41 42 -68 24
-46 26 -59 24 -145 -1 -52 -1 -189 0 -305 3 -204 -2 -283 -19 -317 -5 -9 -36
-37 -70 -62 -70 -52 -106 -58 -168 -27 -67 35 -118 106 -135 191 -10 52 13
323 35 409 55 215 223 402 291 324z"/>
<path d="M14795 10238 c-10 -15 -11 -24 -5 -26 11 -4 39 25 40 41 0 15 -19 6
-35 -15z"/>
<path d="M6393 11165 c-57 -16 -116 -43 -176 -83 l-38 -25 -30 34 -30 34 6
-55 c15 -139 -7 -210 -96 -317 -22 -26 -45 -58 -50 -71 l-9 -23 -26 31 c-21
24 -29 28 -40 19 -31 -26 -4 -131 36 -144 12 -4 19 -31 28 -123 6 -64 28 -180
48 -257 20 -77 40 -158 44 -180 9 -51 18 -73 44 -108 25 -34 84 -67 121 -67
14 0 42 -11 63 -24 122 -80 408 -81 556 -3 36 19 61 27 63 21 2 -6 11 -20 19
-30 14 -18 15 -18 8 6 -3 14 -10 29 -14 33 -4 5 18 34 49 65 69 70 120 146
153 232 41 104 51 186 47 390 l-4 185 -38 79 c-70 147 -194 293 -283 336 -121
56 -331 77 -451 45z m302 -234 c59 -26 190 -172 217 -241 20 -49 22 -73 23
-230 0 -154 -3 -184 -22 -246 -20 -63 -30 -79 -85 -129 -57 -53 -135 -98 -162
-94 -6 1 -19 -1 -29 -6 -36 -15 -129 3 -205 41 -89 43 -215 158 -255 232 -77
142 -47 321 72 437 32 31 59 70 76 111 29 69 20 63 175 115 100 33 140 35 195
10z"/>
<path d="M6600 10524 c0 -12 9 -32 20 -45 19 -24 19 -24 20 -3 0 12 -9 32 -20
45 -19 24 -19 24 -20 3z"/>
<path d="M6450 10448 c0 -31 94 -168 106 -155 10 10 -20 71 -59 124 -33 43
-47 53 -47 31z"/>
<path d="M6770 10280 c0 -35 34 -117 64 -155 13 -17 15 -17 16 -4 0 31 -40
147 -60 171 l-19 23 -1 -35z"/>
<path d="M16930 11118 c-23 -38 -53 -160 -44 -182 10 -27 22 -18 49 40 48 101
44 222 -5 142z"/>
<path d="M4077 11106 c-7 -19 1 -46 14 -46 11 0 11 31 0 48 -7 11 -9 11 -14
-2z"/>
<path d="M15932 11048 c-14 -14 -16 -38 -2 -38 9 0 30 31 30 44 0 10 -15 7
-28 -6z"/>
<path d="M2390 11027 c0 -7 14 -26 30 -42 35 -34 38 -29 9 19 -21 37 -39 47
-39 23z"/>
<path d="M14057 10998 c-26 -44 -67 -141 -67 -158 0 -21 21 -9 40 23 23 36 65
165 57 173 -3 3 -17 -14 -30 -38z"/>
<path d="M3451 11014 c0 -11 3 -14 6 -6 3 7 2 16 -1 19 -3 4 -6 -2 -5 -13z"/>
<path d="M703 11005 c-8 -23 4 -73 28 -111 31 -51 43 -43 36 22 -8 78 -47 132
-64 89z"/>
<path d="M7621 10968 c1 -34 24 -91 38 -96 12 -4 10 19 -11 86 -11 37 -28 43
-27 10z"/>
<path d="M4700 10942 c0 -33 47 -132 62 -132 15 0 4 59 -21 114 -22 52 -41 60
-41 18z"/>
<path d="M17607 10930 c-14 -25 -42 -81 -62 -125 -30 -68 -32 -76 -11 -52 32
40 109 193 104 209 -3 7 -16 -8 -31 -32z"/>
<path d="M19228 10929 c-10 -5 -18 -17 -18 -24 0 -22 28 -18 40 4 17 33 10 39
-22 20z"/>
<path d="M4229 10903 c-3 -24 4 -70 14 -81 19 -23 30 3 17 42 -11 34 -29 56
-31 39z"/>
<path d="M14412 10847 c-24 -56 -45 -266 -23 -227 15 26 42 178 39 217 l-4 38
-12 -28z"/>
<path d="M16750 10783 c0 -22 2 -25 10 -13 13 20 13 40 0 40 -5 0 -10 -12 -10
-27z"/>
<path d="M1390 10784 c0 -13 52 -92 75 -114 22 -20 25 -21 31 -6 14 37 -43
126 -82 126 -13 0 -24 -3 -24 -6z"/>
<path d="M15380 10754 c-13 -32 -13 -44 0 -44 10 0 30 41 30 61 0 19 -21 8
-30 -17z"/>
<path d="M872 10758 c-17 -17 -15 -53 3 -68 12 -10 21 -10 40 -2 29 14 32 42
7 65 -22 20 -34 21 -50 5z"/>
<path d="M2683 10744 c-8 -21 26 -49 41 -34 7 7 7 16 0 27 -15 24 -33 27 -41
7z"/>
<path d="M16081 10712 c-51 -80 -77 -179 -40 -156 13 8 74 136 84 177 11 42
-9 33 -44 -21z"/>
<path d="M12391 10670 c0 -33 1 -34 11 -12 8 17 8 26 0 34 -9 9 -12 4 -11 -22z"/>
<path d="M17976 10663 c-44 -46 -73 -102 -88 -175 -12 -56 -7 -88 12 -88 12 0
104 184 122 242 17 59 -1 67 -46 21z"/>
<path d="M19137 10652 c-21 -23 -22 -62 -3 -62 18 0 58 49 53 64 -6 19 -32 18
-50 -2z"/>
<path d="M9230 10636 c0 -36 47 -192 73 -239 l22 -42 3 48 c4 55 -28 193 -54
231 -21 33 -44 34 -44 2z"/>
<path d="M18256 10573 c-40 -54 -44 -65 -18 -56 28 10 72 55 72 74 0 35 -20
29 -54 -18z"/>
<path d="M9521 10563 c1 -63 21 -128 39 -128 20 0 20 136 1 159 -26 31 -41 19
-40 -31z"/>
<path d="M1696 10570 c12 -45 44 -99 63 -110 61 -32 53 10 -15 78 -44 45 -54
52 -48 32z"/>
<path d="M14264 10515 c-20 -30 -11 -88 14 -83 20 4 36 52 28 83 -8 32 -21 32
-42 0z"/>
<path d="M510 10513 c1 -29 36 -96 64 -123 23 -21 29 -22 36 -10 5 8 7 24 3
35 -9 28 -50 81 -79 99 -22 15 -24 15 -24 -1z"/>
<path d="M2845 10510 c-7 -12 12 -50 26 -50 16 0 22 29 9 45 -14 17 -26 19
-35 5z"/>
<path d="M16430 10408 c-11 -18 -20 -37 -20 -43 1 -14 50 47 50 63 0 20 -9 14
-30 -20z"/>
<path d="M3810 10407 c0 -28 84 -127 108 -127 28 0 -15 80 -65 120 -30 23 -43
25 -43 7z"/>
<path d="M7180 10401 c0 -27 66 -255 85 -290 30 -59 37 -48 34 50 -4 93 -5 96
-52 171 -53 85 -67 100 -67 69z"/>
<path d="M3344 10363 c8 -32 74 -133 87 -133 17 0 9 24 -31 92 -43 71 -67 89
-56 41z"/>
<path d="M12015 10358 c-8 -21 0 -48 14 -48 16 0 20 28 6 47 -13 17 -14 17
-20 1z"/>
<path d="M16757 10342 c-18 -20 -22 -48 -8 -56 12 -8 28 13 36 47 8 31 -4 35
-28 9z"/>
<path d="M10192 10328 c-20 -25 -23 -75 -8 -112 26 -63 56 -43 56 37 0 77 -20
108 -48 75z"/>
<path d="M18190 10325 c0 -17 2 -18 24 -9 23 9 20 24 -4 24 -11 0 -20 -7 -20
-15z"/>
<path d="M10683 10285 c0 -22 2 -30 4 -17 2 12 2 30 0 40 -3 9 -5 -1 -4 -23z"/>
<path d="M14257 10286 c-11 -27 -8 -125 4 -147 27 -52 39 28 16 116 -10 36
-15 45 -20 31z"/>
<path d="M10000 10224 c0 -65 22 -116 35 -82 7 19 -9 103 -25 128 -7 10 -10
-4 -10 -46z"/>
<path d="M16937 10273 c-4 -3 -7 -15 -7 -26 0 -19 1 -20 20 -2 11 10 20 22 20
27 0 10 -24 11 -33 1z"/>
<path d="M10490 10160 c0 -42 23 -100 40 -100 24 0 -3 129 -28 138 -8 2 -12
-10 -12 -38z"/>
<path d="M14135 10138 c-16 -57 -20 -108 -7 -108 14 0 31 45 38 98 9 70 -11
76 -31 10z"/>
<path d="M18213 10155 c-3 -9 -3 -18 -1 -21 9 -9 38 8 38 22 0 19 -29 18 -37
-1z"/>
<path d="M18409 10123 c-53 -55 -89 -102 -89 -114 0 -16 37 -9 64 12 28 22 86
114 86 137 0 22 -15 13 -61 -35z"/>
<path d="M15521 10102 c-12 -24 -20 -46 -18 -48 7 -8 48 67 44 80 -2 6 -14 -9
-26 -32z"/>
<path d="M17371 10127 c-7 -9 -11 -24 -9 -34 3 -16 5 -15 17 5 15 29 10 50 -8
29z"/>
<path d="M840 10107 c0 -17 38 -53 46 -44 10 10 -3 35 -25 47 -17 8 -21 8 -21
-3z"/>
<path d="M16393 10105 c-49 -21 -66 -55 -61 -123 2 -33 14 -76 26 -100 12 -24
22 -49 22 -56 0 -8 10 -14 23 -14 12 0 42 -7 67 -17 59 -22 150 -17 188 11 41
30 62 81 62 147 0 127 -49 167 -205 166 -54 0 -103 -5 -122 -14z"/>
<path d="M2350 10095 c0 -8 30 -45 66 -82 65 -67 65 -68 42 -24 -26 49 -85
121 -99 121 -5 0 -9 -7 -9 -15z"/>
<path d="M4115 10060 c-7 -12 2 -30 16 -30 12 0 12 27 0 35 -5 3 -12 1 -16 -5z"/>
<path d="M16813 10063 c-18 -6 -16 -33 1 -33 19 0 31 19 20 30 -5 4 -15 5 -21
3z"/>
<path d="M3137 9993 c15 -42 115 -245 118 -241 5 5 -51 140 -84 206 -22 42
-46 67 -34 35z"/>
<path d="M17274 9948 c-29 -31 -44 -63 -60 -121 -9 -36 -10 -47 -1 -45 18 6
89 146 85 169 -3 20 -3 20 -24 -3z"/>
<path d="M18272 9837 c-36 -39 -25 -60 19 -37 11 6 19 21 19 35 0 31 -10 32
-38 2z"/>
<path d="M4460 9832 c0 -14 39 -46 47 -38 4 4 2 15 -3 24 -12 19 -44 29 -44
14z"/>
<path d="M8956 9777 c14 -69 30 -117 40 -117 7 0 -1 41 -23 123 -21 77 -34 73
-17 -6z"/>
<path d="M13111 9783 c-6 -21 -11 -54 -10 -73 l1 -35 12 30 c18 42 29 115 17
115 -6 0 -15 -17 -20 -37z"/>
<path d="M13577 9772 c-37 -41 -64 -152 -36 -152 10 0 79 138 79 159 0 17 -25
13 -43 -7z"/>
<path d="M4016 9753 c23 -97 131 -283 164 -283 29 0 -29 146 -100 249 -44 66
-75 82 -64 34z"/>
<path d="M7704 9745 c-7 -18 62 -165 79 -165 26 0 -21 139 -57 169 -13 11 -17
10 -22 -4z"/>
<path d="M18730 9725 c0 -12 7 -15 25 -13 14 2 26 8 26 13 0 6 -12 11 -26 13
-18 2 -25 -1 -25 -13z"/>
<path d="M6950 9720 c0 -6 8 -25 17 -43 16 -29 18 -30 21 -10 2 12 -2 31 -8
42 -11 22 -30 28 -30 11z"/>
<path d="M13983 9701 c-24 -38 -39 -116 -47 -246 l-5 -90 28 86 c33 100 55
211 49 254 l-3 30 -22 -34z"/>
<path d="M19326 9723 c-11 -12 -6 -60 8 -72 12 -10 17 -9 24 6 15 28 -13 85
-32 66z"/>
<path d="M11017 9677 c-7 -18 12 -109 25 -122 7 -7 9 11 6 53 -4 62 -20 98
-31 69z"/>
<path d="M6524 9654 c4 -15 18 -41 31 -59 14 -17 30 -46 36 -63 12 -36 34 -44
24 -9 -4 12 -23 52 -42 90 -36 68 -61 89 -49 41z"/>
<path d="M14285 9648 c-2 -7 -6 -30 -10 -51 -3 -22 -19 -65 -36 -97 -38 -76
-39 -164 -1 -117 6 7 16 34 22 61 13 58 31 95 59 120 24 22 26 35 9 71 -12 26
-36 34 -43 13z"/>
<path d="M16310 9558 c-54 -82 -70 -118 -55 -118 9 0 125 182 125 196 0 8 -2
14 -5 14 -2 0 -31 -41 -65 -92z"/>
<path d="M15531 9622 c-14 -26 -14 -42 -1 -42 11 0 25 48 17 56 -3 3 -10 -3
-16 -14z"/>
<path d="M3802 9611 c2 -14 9 -26 16 -29 17 -5 15 10 -3 34 -15 18 -15 18 -13
-5z"/>
<path d="M4455 9608 c17 -59 109 -168 141 -168 45 0 15 59 -67 134 -68 61 -84
68 -74 34z"/>
<path d="M5740 9599 c0 -17 40 -79 51 -79 9 0 -2 36 -23 69 -14 23 -28 28 -28
10z"/>
<path d="M17384 9523 c-38 -36 -54 -58 -46 -61 19 -6 93 50 115 87 31 51 -2
39 -69 -26z"/>
<path d="M6300 9547 c0 -16 32 -47 48 -47 18 0 14 18 -8 40 -23 23 -40 26 -40
7z"/>
<path d="M9042 9530 c0 -19 2 -27 5 -17 2 9 2 25 0 35 -3 9 -5 1 -5 -18z"/>
<path d="M13353 9548 c-9 -10 -53 -115 -53 -125 0 -2 7 -3 15 -3 19 0 45 40
55 84 9 40 -1 64 -17 44z"/>
<path d="M1662 9514 c1 -9 9 -19 16 -22 9 -3 13 2 10 14 -1 9 -9 19 -16 22 -9
3 -13 -2 -10 -14z"/>
<path d="M2661 9514 c6 -8 18 -14 26 -14 20 0 8 16 -17 23 -17 4 -19 3 -9 -9z"/>
<path d="M8484 9504 c10 -37 66 -153 79 -161 19 -11 -3 79 -31 131 -32 58 -59
75 -48 30z"/>
<path d="M18664 9484 c-54 -58 -109 -134 -96 -134 5 0 36 30 68 68 80 91 88
101 80 109 -3 4 -27 -16 -52 -43z"/>
<path d="M5806 9482 c-3 -5 13 -30 34 -57 21 -27 43 -67 49 -89 12 -47 52
-116 58 -100 6 18 -43 163 -68 199 -24 34 -64 60 -73 47z"/>
<path d="M8112 9455 c0 -16 2 -22 5 -12 2 9 2 23 0 30 -3 6 -5 -1 -5 -18z"/>
<path d="M11307 9455 c-14 -44 -28 -168 -23 -191 15 -59 54 14 55 101 0 28 -6
64 -13 80 -11 27 -13 28 -19 10z"/>
<path d="M16414 9442 c-27 -22 -49 -62 -34 -62 20 0 69 30 79 49 18 33 -10 42
-45 13z"/>
<path d="M10714 9438 c-9 -15 -19 -165 -10 -157 11 10 36 110 36 142 0 28 -13
36 -26 15z"/>
<path d="M16938 9437 c-42 -34 -65 -107 -33 -107 20 0 98 77 90 89 -13 22 -42
31 -57 18z"/>
<path d="M10152 9415 c0 -16 2 -22 5 -12 2 9 2 23 0 30 -3 6 -5 -1 -5 -18z"/>
<path d="M12671 9414 c-12 -15 -21 -32 -21 -39 0 -7 -18 -75 -39 -152 -50
-175 -56 -203 -42 -203 6 0 11 7 11 15 0 24 28 17 46 -11 10 -14 21 -21 26
-16 4 4 17 75 28 158 11 82 27 164 35 182 13 29 13 36 0 62 -9 17 -17 30 -20
30 -2 0 -13 -12 -24 -26z"/>
<path d="M9887 9423 c-11 -11 -7 -56 8 -88 13 -29 13 -29 14 33 1 57 -5 72
-22 55z"/>
<path d="M10433 9369 c3 -13 9 -43 13 -67 4 -23 11 -45 15 -48 12 -7 11 43 -1
88 -12 42 -37 67 -27 27z"/>
<path d="M14702 9337 c-12 -13 -19 -27 -15 -30 7 -8 53 31 53 45 0 15 -16 8
-38 -15z"/>
<path d="M1383 9323 c9 -2 25 -2 35 0 9 3 1 5 -18 5 -19 0 -27 -2 -17 -5z"/>
<path d="M14332 9313 c2 -10 10 -18 18 -18 8 0 16 8 18 18 2 12 -3 17 -18 17
-15 0 -20 -5 -18 -17z"/>
<path d="M15741 9286 c-12 -18 -21 -36 -21 -39 0 -4 -27 -55 -60 -115 -63
-114 -78 -161 -34 -101 55 74 163 289 144 289 -4 0 -18 -15 -29 -34z"/>
<path d="M17589 9281 c-30 -31 -38 -61 -16 -61 18 0 53 39 62 68 9 31 -10 28
-46 -7z"/>
<path d="M7634 9270 c-17 -17 -5 -50 17 -50 22 0 25 19 6 43 -9 13 -15 15 -23
7z"/>
<path d="M3960 9267 c0 -21 44 -117 60 -132 28 -25 26 -4 -4 60 -20 43 -56 89
-56 72z"/>
<path d="M18999 9186 c-119 -102 -185 -174 -172 -187 16 -16 67 14 128 75 53
53 132 162 123 171 -3 3 -38 -24 -79 -59z"/>
<path d="M18850 9225 c-7 -9 -10 -18 -7 -21 10 -11 37 5 37 21 0 19 -14 19
-30 0z"/>
<path d="M7254 9186 c-6 -17 12 -56 26 -56 6 0 10 9 10 19 0 43 -24 68 -36 37z"/>
<path d="M8530 9183 c0 -63 105 -373 129 -381 19 -6 10 125 -12 159 -8 13 -23
51 -32 84 -28 98 -85 191 -85 138z"/>
<path d="M9902 9160 c0 -19 2 -27 5 -17 2 9 2 25 0 35 -3 9 -5 1 -5 -18z"/>
<path d="M7940 9169 c0 -22 25 -52 40 -47 9 3 5 13 -13 33 -18 21 -26 25 -27
14z"/>
<path d="M9525 9145 c8 -45 63 -171 97 -217 20 -29 22 -30 35 -12 26 36 16 81
-31 132 -23 26 -58 67 -75 92 l-33 45 7 -40z"/>
<path d="M10487 9100 c7 -67 31 -162 44 -174 19 -20 7 61 -21 144 l-29 85 6
-55z"/>
<path d="M15120 9130 c-22 -22 -26 -40 -10 -40 13 0 50 37 50 50 0 16 -18 12
-40 -10z"/>
<path d="M13283 9089 c-30 -67 -83 -235 -83 -264 0 -48 40 -16 63 50 21 59 49
211 45 237 -4 19 -8 16 -25 -23z"/>
<path d="M10750 9100 c0 -11 5 -20 10 -20 6 0 10 9 10 20 0 11 -4 20 -10 20
-5 0 -10 -9 -10 -20z"/>
<path d="M1585 9100 c-8 -13 13 -40 31 -40 20 0 27 19 14 35 -14 17 -36 19
-45 5z"/>
<path d="M3200 9096 c0 -8 5 -18 11 -22 6 -3 42 -48 80 -100 65 -88 89 -110
89 -83 0 24 -66 126 -112 172 -48 48 -68 58 -68 33z"/>
<path d="M1914 9087 c-8 -21 1 -47 16 -47 19 0 23 31 7 48 -15 14 -17 14 -23
-1z"/>
<path d="M7771 9066 c-11 -13 -11 -20 -3 -28 15 -15 24 -5 20 23 -3 21 -4 21
-17 5z"/>
<path d="M9902 9050 c0 -14 2 -19 5 -12 2 6 2 18 0 25 -3 6 -5 1 -5 -13z"/>
<path d="M5074 9035 c-3 -8 -3 -19 1 -25 11 -18 25 -11 25 15 0 27 -17 34 -26
10z"/>
<path d="M13430 9005 c-26 -55 -39 -178 -22 -189 30 -18 72 147 53 209 l-9 30
-22 -50z"/>
<path d="M15872 8968 c-49 -87 -61 -128 -39 -128 22 0 54 49 77 116 38 109 20
114 -38 12z"/>
<path d="M2060 9008 c0 -21 37 -76 59 -87 34 -18 33 5 -1 50 -35 45 -58 60
-58 37z"/>
<path d="M11412 9000 c0 -14 2 -19 5 -12 2 6 2 18 0 25 -3 6 -5 1 -5 -13z"/>
<path d="M9154 8966 c-11 -29 15 -140 51 -211 19 -40 35 -81 35 -93 0 -26 20
-72 32 -72 16 0 7 43 -30 143 -22 56 -45 133 -52 170 -13 69 -25 91 -36 63z"/>
<path d="M13775 8968 c-2 -7 -15 -58 -29 -113 -14 -55 -34 -129 -45 -165 -42
-133 2 -60 69 114 46 123 54 168 27 174 -9 2 -19 -2 -22 -10z"/>
<path d="M17537 8925 c-51 -53 -65 -90 -25 -63 33 22 81 84 76 99 -3 8 -22 -6
-51 -36z"/>
<path d="M17052 8948 c-15 -15 -16 -38 -2 -38 12 0 23 25 18 40 -2 7 -7 7 -16
-2z"/>
<path d="M2949 8901 c35 -48 101 -98 101 -76 0 3 -21 28 -46 55 -52 56 -90 70
-55 21z"/>
<path d="M9490 8837 c0 -18 28 -42 37 -33 9 8 -9 38 -25 44 -7 2 -12 -3 -12
-11z"/>
<path d="M12526 8825 c-3 -9 -6 -48 -6 -87 0 -78 13 -87 42 -27 16 31 16 41 5
79 -13 46 -31 61 -41 35z"/>
<path d="M930 8791 c0 -26 28 -91 40 -91 16 0 12 49 -7 81 -20 33 -33 37 -33
10z"/>
<path d="M1240 8800 c-22 -14 0 -31 49 -37 52 -7 55 12 6 33 -40 17 -36 16
-55 4z"/>
<path d="M7930 8761 c0 -12 6 -21 16 -21 9 0 14 7 12 17 -5 25 -28 28 -28 4z"/>
<path d="M14330 8744 c0 -21 4 -33 10 -29 6 3 10 19 10 36 0 16 -4 29 -10 29
-5 0 -10 -16 -10 -36z"/>
<path d="M3105 8750 c-7 -11 29 -50 46 -50 6 0 8 7 5 16 -3 9 -6 17 -6 19 0
11 -39 24 -45 15z"/>
<path d="M14652 8721 c-11 -31 -1 -58 17 -47 13 9 15 62 2 70 -5 3 -14 -7 -19
-23z"/>
<path d="M13367 8723 c-13 -12 -7 -33 8 -33 8 0 15 9 15 20 0 20 -11 26 -23
13z"/>
<path d="M14091 8702 c-13 -25 -15 -85 -2 -77 17 10 34 76 23 87 -7 7 -14 4
-21 -10z"/>
<path d="M15725 8659 c-34 -53 -38 -66 -26 -73 13 -8 41 21 57 61 28 66 7 74
-31 12z"/>
<path d="M15398 8637 c-20 -43 -33 -101 -20 -93 21 13 61 126 44 126 -5 0 -15
-15 -24 -33z"/>
<path d="M6700 8658 c0 -16 61 -169 98 -248 67 -140 110 -176 56 -47 -50 119
-154 318 -154 295z"/>
<path d="M14992 8617 c-28 -45 -27 -92 3 -92 26 0 41 53 29 97 l-10 32 -22
-37z"/>
<path d="M8180 8630 c0 -21 52 -130 62 -130 14 0 0 68 -20 104 -18 31 -42 46
-42 26z"/>
<path d="M8535 8618 c-7 -28 16 -110 30 -109 15 1 18 51 5 93 -12 43 -27 49
-35 16z"/>
<path d="M11058 8611 c-12 -51 -10 -107 3 -94 5 5 9 37 7 69 -3 53 -4 55 -10
25z"/>
<path d="M14445 8567 c-24 -51 -46 -157 -31 -157 12 0 65 123 72 168 9 59 -9
54 -41 -11z"/>
<path d="M16230 8599 c-7 -11 -9 -23 -6 -26 8 -9 36 17 36 33 0 21 -18 17 -30
-7z"/>
<path d="M7010 8591 c0 -5 7 -14 15 -21 13 -10 15 -9 15 9 0 12 -6 21 -15 21
-8 0 -15 -4 -15 -9z"/>
<path d="M7526 8592 c-14 -24 78 -212 104 -212 20 0 9 40 -31 117 -45 87 -63
110 -73 95z"/>
<path d="M11396 8579 c-25 -37 -17 -167 11 -176 30 -10 48 156 20 185 -13 12
-17 11 -31 -9z"/>
<path d="M12444 8574 c-4 -14 -2 -35 4 -47 9 -19 11 -15 11 26 1 52 -5 61 -15
21z"/>
<path d="M12242 8570 c0 -14 2 -19 5 -12 2 6 2 18 0 25 -3 6 -5 1 -5 -13z"/>
<path d="M17005 8573 c-41 -10 -70 -55 -49 -76 17 -17 102 52 89 72 -7 12 -8
12 -40 4z"/>
<path d="M4800 8552 c0 -32 132 -203 147 -189 10 11 -120 207 -138 207 -5 0
-9 -8 -9 -18z"/>
<path d="M15122 8537 c-33 -34 -39 -47 -23 -47 16 0 71 51 71 66 0 22 -13 17
-48 -19z"/>
<path d="M12872 8483 c-32 -62 -58 -163 -44 -163 14 0 63 117 69 161 7 49 -1
49 -25 2z"/>
<path d="M16428 8472 c-56 -60 -152 -252 -134 -269 8 -8 90 95 116 147 28 55
55 138 47 146 -2 2 -15 -9 -29 -24z"/>
<path d="M17997 8468 c-28 -39 -52 -96 -44 -104 3 -4 26 -9 51 -11 75 -9 93
24 60 107 -20 48 -35 50 -67 8z"/>
<path d="M12645 8439 c-4 -6 -4 -13 -1 -16 8 -8 36 5 36 17 0 13 -27 13 -35
-1z"/>
<path d="M14627 8393 c-13 -12 -7 -33 8 -33 8 0 15 9 15 20 0 20 -11 26 -23
13z"/>
<path d="M15065 8390 c-4 -7 -3 -16 3 -22 14 -14 45 -2 40 15 -6 16 -34 21
-43 7z"/>
<path d="M4540 8367 c0 -8 7 -21 16 -28 14 -11 15 -10 12 11 -3 26 -28 41 -28
17z"/>
<path d="M6372 8355 c0 -16 2 -22 5 -12 2 9 2 23 0 30 -3 6 -5 -1 -5 -18z"/>
<path d="M15247 8373 c-4 -3 -7 -15 -7 -26 0 -11 -16 -34 -35 -53 -32 -30 -45
-54 -29 -54 20 0 73 44 89 73 23 42 9 87 -18 60z"/>
<path d="M3047 8363 c-8 -12 10 -80 23 -88 15 -9 12 59 -3 80 -8 10 -17 14
-20 8z"/>
<path d="M17483 8358 c-19 -25 -24 -38 -14 -38 11 0 35 39 28 46 -2 3 -9 -1
-14 -8z"/>
<path d="M15587 8303 c-32 -51 -67 -120 -67 -133 0 -17 36 -11 54 9 9 10 26
42 37 70 34 90 19 123 -24 54z"/>
<path d="M10252 8280 c0 -19 2 -27 5 -17 2 9 2 25 0 35 -3 9 -5 1 -5 -18z"/>
<path d="M3830 8291 c0 -12 26 -32 33 -25 9 10 -4 34 -19 34 -8 0 -14 -4 -14
-9z"/>
<path d="M7510 8289 c0 -19 59 -103 67 -96 2 3 -11 29 -31 59 -20 29 -36 46
-36 37z"/>
<path d="M8037 8273 c-22 -22 16 -103 49 -103 19 0 17 16 -6 68 -18 40 -29 49
-43 35z"/>
<path d="M14559 8235 c-27 -61 -22 -93 7 -45 12 19 24 47 28 63 10 44 -13 32
-35 -18z"/>
<path d="M17083 8265 c-3 -9 -3 -19 1 -22 7 -7 36 16 36 28 0 15 -30 10 -37
-6z"/>
<path d="M4050 8242 c0 -13 61 -116 90 -152 30 -38 24 -6 -11 60 -30 58 -79
114 -79 92z"/>
<path d="M6490 8218 c1 -31 55 -165 76 -189 15 -17 44 -26 44 -14 0 33 -98
225 -115 225 -3 0 -5 -10 -5 -22z"/>
<path d="M9670 8210 c0 -37 25 -100 39 -100 16 0 13 44 -5 90 -19 48 -34 52
-34 10z"/>
<path d="M2680 8209 c0 -20 21 -49 35 -49 20 0 19 25 -1 44 -18 18 -34 21 -34
5z"/>
<path d="M15953 8153 c-52 -63 -69 -93 -50 -93 8 0 21 8 29 18 23 26 71 112
66 118 -3 2 -23 -17 -45 -43z"/>
<path d="M10742 8168 c-7 -7 -12 -24 -12 -38 0 -50 42 -67 62 -25 9 19 8 29
-6 50 -18 28 -27 30 -44 13z"/>
<path d="M12242 8093 c-26 -116 -33 -163 -22 -163 9 0 34 102 49 198 13 84 -6
60 -27 -35z"/>
<path d="M11497 8157 c-11 -30 -19 -132 -9 -122 9 9 32 100 32 125 0 15 -17
12 -23 -3z"/>
<path d="M3275 8140 c4 -14 16 -34 26 -45 31 -32 25 8 -7 42 l-25 28 6 -25z"/>
<path d="M11005 8127 c-4 -10 -5 -21 -1 -24 10 -10 18 4 13 24 -4 17 -4 17
-12 0z"/>
<path d="M14488 8119 c-19 -10 -25 -39 -9 -39 15 0 42 31 36 41 -7 11 -6 11
-27 -2z"/>
<path d="M11092 8094 c-20 -38 -33 -140 -21 -170 l11 -29 19 24 c15 18 19 39
19 95 0 80 -11 111 -28 80z"/>
<path d="M4530 8067 c0 -25 28 -57 48 -57 18 0 14 24 -9 54 -25 32 -39 33 -39
3z"/>
<path d="M17966 8083 c-12 -12 -6 -44 10 -50 18 -7 35 13 27 33 -5 15 -29 25
-37 17z"/>
<path d="M11763 7993 c-20 -29 -33 -183 -16 -183 5 0 19 28 31 63 36 100 25
182 -15 120z"/>
<path d="M5112 7953 c2 -10 10 -18 18 -18 8 0 16 8 18 18 2 12 -3 17 -18 17
-15 0 -20 -5 -18 -17z"/>
<path d="M10707 7963 c-12 -12 -7 -50 8 -63 12 -10 15 -7 21 14 10 40 -8 70
-29 49z"/>
<path d="M8690 7921 c0 -25 39 -101 51 -101 11 0 -21 92 -37 110 -12 12 -14
11 -14 -9z"/>
<path d="M15320 7921 c-13 -25 -13 -31 1 -31 12 0 38 29 39 43 0 15 -30 6 -40
-12z"/>
<path d="M9091 7900 c0 -29 1 -32 10 -17 7 11 7 23 0 35 -9 14 -10 11 -10 -18z"/>
<path d="M13847 7902 c-18 -20 -24 -67 -7 -57 6 3 10 15 10 25 0 10 10 26 22
34 16 12 18 16 7 16 -9 0 -23 -8 -32 -18z"/>
<path d="M13337 7878 c-39 -84 -52 -233 -22 -245 53 -20 106 153 79 255 -9 33
-39 27 -57 -10z"/>
<path d="M4642 7884 c1 -9 9 -19 16 -22 9 -3 13 2 10 14 -1 9 -9 19 -16 22 -9
3 -13 -2 -10 -14z"/>
<path d="M8394 7884 c3 -9 6 -18 6 -20 0 -2 7 -4 16 -4 11 0 14 5 10 16 -3 9
-6 18 -6 20 0 2 -7 4 -16 4 -11 0 -14 -5 -10 -16z"/>
<path d="M6966 7882 c-4 -6 1 -39 9 -74 12 -43 14 -80 10 -119 -6 -53 -5 -59
17 -72 12 -8 38 -18 55 -22 33 -7 33 -6 27 27 -22 120 -99 290 -118 260z"/>
<path d="M7706 7828 c4 -34 13 -82 20 -107 l12 -46 2 35 c3 61 -1 114 -11 148
-18 54 -31 38 -23 -30z"/>
<path d="M7532 7840 c0 -14 2 -19 5 -12 2 6 2 18 0 25 -3 6 -5 1 -5 -13z"/>
<path d="M14406 7827 c-25 -32 -76 -155 -76 -180 1 -31 93 122 114 191 11 33
-9 27 -38 -11z"/>
<path d="M15282 7843 c-15 -6 -75 -124 -67 -132 9 -8 73 60 86 91 13 31 4 49
-19 41z"/>
<path d="M5700 7833 c0 -19 11 -43 21 -43 13 0 11 14 -6 36 -8 10 -15 14 -15
7z"/>
<path d="M12192 7815 c0 -16 2 -22 5 -12 2 9 2 23 0 30 -3 6 -5 -1 -5 -18z"/>
<path d="M17310 7775 c0 -31 76 -48 87 -19 8 21 -13 34 -54 34 -22 0 -33 -5
-33 -15z"/>
<path d="M13773 7719 c-37 -74 -50 -119 -34 -119 15 0 37 37 56 97 27 83 14
95 -22 22z"/>
<path d="M4854 7759 c-28 -35 -21 -88 9 -76 30 11 38 43 19 67 -15 18 -20 20
-28 9z"/>
<path d="M6127 7744 c-4 -4 -7 -36 -7 -72 0 -84 27 -134 87 -163 23 -11 53
-19 65 -17 22 3 21 5 -14 38 -27 26 -43 53 -58 102 -21 68 -59 126 -73 112z"/>
<path d="M5595 7698 c-10 -26 -2 -63 15 -63 20 0 24 36 6 60 -13 18 -15 18
-21 3z"/>
<path d="M11753 7693 c-3 -10 -8 -22 -11 -28 -3 -5 4 -1 16 9 24 20 28 36 12
36 -6 0 -13 -8 -17 -17z"/>
<path d="M4160 7686 c-9 -12 -4 -23 31 -61 23 -25 44 -44 46 -41 6 6 -18 88
-30 104 -13 16 -32 15 -47 -2z"/>
<path d="M17370 7680 c-27 -27 -16 -50 25 -50 42 0 51 14 31 45 -20 30 -30 31
-56 5z"/>
<path d="M14644 7665 c-9 -14 -13 -29 -9 -33 7 -7 45 34 45 49 0 18 -20 9 -36
-16z"/>
<path d="M13633 7640 c0 -25 2 -35 4 -22 2 12 2 32 0 45 -2 12 -4 2 -4 -23z"/>
<path d="M4504 7655 c-7 -17 30 -97 53 -117 15 -12 16 -8 10 39 -6 56 -24 93
-45 93 -7 0 -15 -7 -18 -15z"/>
<path d="M5700 7637 c0 -8 7 -21 16 -28 14 -11 15 -10 12 11 -3 26 -28 41 -28
17z"/>
<path d="M5770 7626 c0 -7 13 -42 30 -77 l29 -64 1 48 c0 27 -5 58 -11 70 -19
35 -49 49 -49 23z"/>
<path d="M13895 7508 c-41 -86 -57 -153 -34 -146 29 9 95 196 76 215 -4 3 -23
-28 -42 -69z"/>
<path d="M4814 7556 c-8 -22 -1 -59 13 -64 17 -5 27 22 19 53 -7 28 -24 33
-32 11z"/>
<path d="M5743 7510 c3 -19 12 -51 21 -70 l16 -35 -4 46 c-2 26 -11 57 -21 70
l-17 24 5 -35z"/>
<path d="M11421 7454 c-6 -21 -11 -52 -11 -69 1 -28 2 -29 14 -12 19 25 29 84
17 104 -7 14 -11 10 -20 -23z"/>
<path d="M5510 7465 c0 -8 5 -15 10 -15 6 0 10 7 10 15 0 8 -4 15 -10 15 -5 0
-10 -7 -10 -15z"/>
<path d="M9920 7463 c0 -22 48 -103 61 -103 13 0 3 33 -24 83 -22 39 -37 48
-37 20z"/>
<path d="M3950 7453 c0 -20 18 -43 33 -43 4 0 7 12 5 27 -4 32 -38 46 -38 16z"/>
<path d="M3295 7450 c-9 -15 4 -50 20 -50 21 0 27 17 15 40 -12 22 -25 26 -35
10z"/>
<path d="M6622 7433 c4 -32 38 -46 38 -16 0 20 -18 43 -33 43 -4 0 -7 -12 -5
-27z"/>
<path d="M15454 7425 c-26 -26 -33 -65 -11 -65 16 0 67 51 67 67 0 23 -32 22
-56 -2z"/>
<path d="M15950 7437 c-30 -10 -38 -21 -58 -71 -39 -97 -10 -118 51 -36 71 95
73 128 7 107z"/>
<path d="M4285 7380 c-10 -16 26 -180 39 -180 7 0 24 13 39 28 39 41 36 82
-10 127 -37 35 -57 43 -68 25z"/>
<path d="M14897 7363 c-4 -3 -7 -12 -7 -20 0 -11 4 -11 20 -3 11 6 18 15 15
21 -7 11 -19 12 -28 2z"/>
<path d="M5970 7342 c0 -57 92 -234 111 -215 11 11 -6 63 -49 149 -36 71 -62
99 -62 66z"/>
<path d="M10660 7310 c-14 -34 -8 -136 9 -153 27 -27 40 49 25 146 -8 45 -17
47 -34 7z"/>
<path d="M11280 7310 c0 -11 5 -20 10 -20 6 0 10 9 10 20 0 11 -4 20 -10 20
-5 0 -10 -9 -10 -20z"/>
<path d="M7993 7231 c5 -65 34 -126 58 -126 36 0 -11 171 -50 183 -11 4 -13
-7 -8 -57z"/>
<path d="M5340 7252 c0 -10 14 -31 30 -47 28 -26 30 -27 30 -8 0 22 -35 73
-51 73 -5 0 -9 -8 -9 -18z"/>
<path d="M4573 7229 c-19 -24 -24 -56 -13 -83 13 -34 27 -26 36 20 8 44 -6 83
-23 63z"/>
<path d="M12140 7220 c0 -13 7 -20 20 -20 13 0 20 7 20 20 0 13 -7 20 -20 20
-13 0 -20 -7 -20 -20z"/>
<path d="M13991 7217 c-16 -42 -12 -68 5 -28 8 18 13 38 11 45 -3 6 -10 -2
-16 -17z"/>
<path d="M16248 7200 c-37 -49 -68 -119 -67 -155 l0 -30 28 31 c32 36 74 136
69 168 -3 19 -6 17 -30 -14z"/>
<path d="M6711 7189 c-16 -44 25 -107 52 -80 11 11 -8 74 -28 91 -12 10 -16 8
-24 -11z"/>
<path d="M11280 7134 c0 -14 4 -23 10 -19 6 3 10 15 10 26 0 10 -4 19 -10 19
-5 0 -10 -12 -10 -26z"/>
<path d="M13594 7135 c-3 -14 -3 -33 0 -42 6 -15 8 -15 16 -3 13 20 13 70 0
70 -5 0 -12 -11 -16 -25z"/>
<path d="M13817 7153 c-13 -13 -7 -53 8 -53 10 0 15 10 15 30 0 29 -9 38 -23
23z"/>
<path d="M14422 7104 c-16 -58 -8 -68 14 -22 11 24 13 41 7 52 -7 13 -12 6
-21 -30z"/>
<path d="M15397 7083 c-14 -13 -6 -33 13 -33 13 0 20 7 20 20 0 19 -20 27 -33
13z"/>
<path d="M13942 7055 c-14 -29 2 -34 18 -6 12 24 13 31 2 31 -5 0 -14 -11 -20
-25z"/>
<path d="M3784 7034 c-4 -15 -3 -39 2 -53 8 -21 17 -27 47 -29 46 -4 48 10 7
66 -35 49 -47 52 -56 16z"/>
<path d="M3220 7013 c0 -25 25 -48 72 -68 50 -20 57 -4 16 39 -40 43 -88 58
-88 29z"/>
<path d="M6420 6960 c0 -30 13 -40 25 -20 8 13 -4 50 -16 50 -5 0 -9 -13 -9
-30z"/>
<path d="M2710 6945 c-6 -8 -9 -23 -5 -35 14 -43 115 -82 115 -45 0 9 -7 29
-15 45 -24 47 -71 64 -95 35z"/>
<path d="M13291 6887 c-14 -36 -14 -37 3 -37 17 0 27 33 15 51 -6 10 -11 6
-18 -14z"/>
<path d="M12731 6769 c-23 -45 -41 -90 -41 -100 0 -32 19 -31 40 3 18 28 27
56 56 161 3 9 1 17 -5 17 -5 0 -28 -37 -50 -81z"/>
<path d="M8742 6810 c0 -14 2 -19 5 -12 2 6 2 18 0 25 -3 6 -5 1 -5 -13z"/>
<path d="M13787 6813 c-35 -40 -126 -283 -105 -283 21 0 78 68 78 94 0 15 9
44 19 64 43 84 49 169 8 125z"/>
<path d="M15770 6817 c0 -18 28 -42 37 -33 9 8 -9 38 -25 44 -7 2 -12 -3 -12
-11z"/>
<path d="M5542 6770 c1 -13 9 -25 16 -28 17 -5 15 23 -4 39 -14 11 -15 10 -12
-11z"/>
<path d="M6820 6763 c0 -23 17 -49 26 -41 9 10 -4 58 -16 58 -6 0 -10 -8 -10
-17z"/>
<path d="M10220 6729 c0 -11 5 -17 10 -14 6 3 10 13 10 21 0 8 -4 14 -10 14
-5 0 -10 -9 -10 -21z"/>
<path d="M5366 6702 c-8 -13 23 -52 40 -52 18 0 18 10 -2 38 -16 23 -29 28
-38 14z"/>
<path d="M9227 6684 c-24 -47 -39 -113 -32 -145 14 -62 44 -17 55 81 9 79 -1
107 -23 64z"/>
<path d="M12290 6694 c0 -9 7 -14 17 -12 25 5 28 28 4 28 -12 0 -21 -6 -21
-16z"/>
<path d="M15993 6703 c-26 -10 -13 -33 18 -33 34 0 69 15 69 30 0 10 -65 12
-87 3z"/>
<path d="M6862 6674 c1 -9 9 -19 16 -22 9 -3 13 2 10 14 -1 9 -9 19 -16 22 -9
3 -13 -2 -10 -14z"/>
<path d="M8725 6670 c-21 -23 -14 -50 13 -50 27 0 45 25 37 50 -8 25 -27 26
-50 0z"/>
<path d="M6980 6620 c-17 -32 5 -53 26 -25 8 10 13 24 11 29 -6 19 -26 17 -37
-4z"/>
<path d="M8474 6596 c-8 -21 4 -86 16 -86 13 0 13 87 0 95 -6 3 -13 -1 -16 -9z"/>
<path d="M11034 6565 c-7 -30 2 -70 22 -99 13 -19 14 -16 14 36 0 60 -7 88
-21 88 -5 0 -11 -11 -15 -25z"/>
<path d="M12277 6583 c-23 -22 5 -125 30 -110 13 8 25 80 17 101 -6 16 -35 22
-47 9z"/>
<path d="M7405 6540 c-4 -12 -1 -28 6 -36 12 -14 14 -14 25 1 14 19 7 55 -11
55 -8 0 -17 -9 -20 -20z"/>
<path d="M10753 6476 c7 -71 29 -136 48 -136 8 0 10 13 5 42 -10 64 -40 158
-50 158 -5 0 -6 -29 -3 -64z"/>
<path d="M14132 6514 c-16 -11 -22 -25 -22 -55 0 -47 12 -44 40 11 31 61 25
75 -18 44z"/>
<path d="M5561 6441 c-17 -30 -7 -51 23 -51 36 0 40 15 13 46 l-24 28 -12 -23z"/>
<path d="M7016 6444 c-9 -22 -8 -24 9 -24 8 0 15 9 15 20 0 24 -15 27 -24 4z"/>
<path d="M8005 6410 c-4 -6 1 -22 10 -37 21 -32 40 -18 26 20 -11 28 -25 34
-36 17z"/>
<path d="M12892 6393 c-15 -26 -16 -53 -2 -53 14 0 22 24 18 52 l-3 23 -13
-22z"/>
<path d="M10114 6386 c-8 -20 29 -96 61 -126 36 -34 38 -21 4 30 -17 25 -33
57 -36 73 -7 33 -21 44 -29 23z"/>
<path d="M11030 6355 c0 -22 4 -34 10 -30 6 3 10 17 10 30 0 13 -4 27 -10 30
-6 4 -10 -8 -10 -30z"/>
<path d="M5715 6370 c-8 -13 3 -30 20 -30 14 0 27 24 18 34 -10 9 -31 7 -38
-4z"/>
<path d="M13967 6350 c-28 -43 -58 -120 -55 -138 5 -21 49 45 67 101 16 48 9
69 -12 37z"/>
<path d="M7439 6343 c-4 -54 23 -157 43 -169 15 -9 5 122 -12 159 -15 31 -29
35 -31 10z"/>
<path d="M9196 6306 c-18 -61 -20 -86 -7 -86 12 0 41 74 41 105 0 45 -19 35
-34 -19z"/>
<path d="M8357 6323 c-19 -18 -5 -64 29 -100 43 -44 52 -35 34 35 -16 63 -40
89 -63 65z"/>
<path d="M6880 6273 c0 -5 7 -18 15 -29 12 -16 14 -16 15 -3 0 9 -7 22 -15 29
-8 7 -15 8 -15 3z"/>
<path d="M9325 6206 c-23 -34 -11 -46 17 -18 16 16 19 25 11 33 -8 8 -16 4
-28 -15z"/>
<path d="M9041 6141 c-6 -10 -13 -37 -17 -60 -6 -36 -4 -41 13 -41 28 0 43 20
43 56 0 60 -20 82 -39 45z"/>
<path d="M13074 6046 c-9 -25 0 -51 20 -54 31 -6 41 14 22 42 -18 29 -34 33
-42 12z"/>
<path d="M7761 6014 c0 -11 3 -14 6 -6 3 7 2 16 -1 19 -3 4 -6 -2 -5 -13z"/>
<path d="M7330 5995 c0 -22 41 -55 69 -55 26 1 26 1 -11 35 -40 38 -58 44 -58
20z"/>
<path d="M8286 5994 c-11 -27 -7 -61 9 -74 12 -10 16 -8 25 14 6 17 6 35 0 51
-11 29 -25 32 -34 9z"/>
<path d="M8621 5901 c-15 -10 -8 -41 9 -41 15 0 25 29 14 40 -5 5 -15 5 -23 1z"/>
</g>
</svg>
