<?xml version="1.0" standalone="no"?>
<!DOCTYPE svg PUBLIC "-//W3C//DTD SVG 20010904//EN"
 "http://www.w3.org/TR/2001/REC-SVG-20010904/DTD/svg10.dtd">
<svg version="1.0" xmlns="http://www.w3.org/2000/svg"
 width="2048.000000pt" height="2048.000000pt" viewBox="0 0 2048.000000 2048.000000"
 preserveAspectRatio="xMidYMid meet">

<g transform="translate(0.000000,2048.000000) scale(0.100000,-0.100000)"
fill="#000000" stroke="none">
<path d="M9210 15499 c-133 -12 -199 -29 -313 -81 -225 -103 -499 -289 -690
-468 -87 -80 -240 -336 -317 -527 -58 -145 -52 -145 -162 -6 -52 65 -119 142
-149 172 -195 193 -453 250 -664 146 -39 -19 -78 -35 -87 -35 -32 0 -124 -116
-177 -223 -46 -93 -60 -136 -88 -272 -5 -25 -14 -40 -23 -40 -8 0 -53 48 -100
106 -156 195 -270 305 -450 433 -186 133 -403 241 -548 271 -91 20 -330 20
-405 0 -218 -57 -484 -264 -580 -452 -9 -17 -28 -70 -42 -118 -79 -273 -90
-466 -38 -665 43 -164 46 -180 27 -180 -8 0 -63 22 -122 49 -127 59 -332 134
-608 224 -332 108 -458 127 -828 129 -216 1 -224 0 -336 -30 -304 -80 -485
-182 -595 -336 -150 -211 -208 -392 -208 -656 0 -299 68 -496 293 -839 56 -84
99 -161 98 -170 -5 -21 -38 -17 -143 14 -166 49 -356 77 -535 78 -117 1 -130
-1 -200 -29 -41 -17 -118 -48 -170 -68 -52 -21 -126 -58 -165 -82 -38 -24 -99
-58 -133 -75 -43 -22 -80 -51 -112 -88 -26 -31 -83 -96 -125 -145 -102 -119
-219 -356 -271 -551 -27 -100 -27 -386 0 -500 22 -94 90 -280 154 -420 57
-127 59 -129 166 -258 96 -117 207 -212 308 -266 110 -59 108 -54 36 -92 -204
-109 -356 -412 -334 -667 13 -137 106 -351 223 -511 75 -103 113 -141 213
-215 163 -122 221 -139 470 -139 195 0 268 11 377 54 81 32 108 36 116 15 3
-7 -3 -62 -14 -122 -42 -248 -14 -407 122 -674 97 -191 196 -327 337 -462 179
-171 328 -254 537 -300 40 -9 135 -13 290 -12 199 0 244 3 333 22 255 55 589
192 856 351 141 83 276 145 320 145 l39 1 13 -65 c8 -37 38 -115 70 -180 52
-104 67 -124 153 -210 133 -132 249 -191 474 -239 214 -46 312 -38 488 38 201
86 262 119 305 166 23 25 50 45 61 45 11 0 29 13 41 29 21 29 110 97 117 89 1
-1 24 -45 49 -96 150 -299 398 -559 686 -719 144 -79 422 -185 560 -211 30 -6
152 -23 270 -38 217 -27 341 -28 402 -5 34 13 258 57 363 71 210 29 392 103
604 244 123 82 185 132 300 241 75 72 171 190 171 213 0 29 38 6 123 -76 139
-133 336 -264 527 -349 96 -43 113 -47 200 -51 72 -3 132 3 248 22 172 30 209
40 279 81 57 33 171 141 218 205 18 25 46 81 63 126 17 44 47 116 67 159 l35
78 198 -194 c262 -259 410 -369 667 -495 441 -216 822 -206 1433 38 142 56
208 88 272 131 211 144 468 540 551 849 29 107 46 147 65 155 9 3 41 -12 77
-37 365 -254 520 -327 791 -375 102 -17 276 -20 362 -4 101 18 216 57 284 96
88 51 227 191 265 268 30 60 30 61 30 230 0 97 -6 200 -13 240 -12 63 -12 70
4 82 20 15 39 12 222 -38 78 -21 191 -46 250 -55 129 -20 364 -22 447 -5 129
28 299 114 417 213 58 48 146 179 181 268 56 142 74 388 42 565 -23 127 -36
115 128 115 192 0 347 17 422 45 198 74 559 304 670 426 260 287 325 415 325
642 0 168 -31 262 -109 329 -47 40 -192 98 -321 128 -124 29 -163 43 -167 57
-2 6 69 85 159 175 243 242 350 388 429 582 74 186 103 345 103 586 1 135 -3
193 -17 255 -60 263 -299 531 -571 639 -85 34 -170 52 -304 65 -194 18 -479
-29 -662 -109 -66 -29 -90 -36 -90 -25 0 11 58 97 160 235 159 215 155 206
155 380 0 163 -10 206 -59 259 -42 45 -139 91 -194 91 -62 0 -230 -36 -310
-66 -37 -14 -86 -32 -109 -39 l-43 -14 0 33 c0 18 9 75 21 127 15 69 22 145
26 285 8 282 -16 391 -118 544 -77 115 -169 198 -285 255 -194 97 -372 98
-688 4 -152 -45 -230 -77 -316 -130 -165 -101 -466 -326 -582 -436 -31 -29
-62 -53 -68 -53 -20 0 -39 65 -50 176 -24 239 -99 459 -190 558 -22 23 -48 62
-58 87 -44 102 -362 371 -557 472 -128 66 -301 126 -429 148 -106 18 -318 6
-441 -25 -144 -36 -312 -98 -424 -156 -258 -136 -523 -354 -635 -522 -19 -29
-48 -66 -65 -82 -34 -33 -31 -38 -56 74 -20 86 -88 282 -146 418 -49 117 -95
187 -184 281 -176 185 -341 253 -620 255 -125 1 -132 0 -195 -30 -244 -116
-477 -410 -540 -680 -28 -120 -46 -140 -75 -83 -18 34 -115 145 -237 270 -58
60 -105 97 -158 126 -41 23 -129 75 -195 118 -66 42 -158 95 -205 117 -47 22
-110 53 -140 68 -30 15 -86 35 -125 43 -179 40 -659 66 -875 46z m-184 -364
c4 -8 3 -23 -1 -32 -6 -16 -8 -16 -26 6 -10 12 -16 27 -13 32 8 14 34 10 40
-6z m1175 -92 c9 -63 2 -170 -12 -179 -5 -3 -13 5 -18 18 -12 32 -32 184 -26
203 17 52 14 50 32 32 9 -9 20 -42 24 -74z m-796 6 c12 -36 -16 -149 -36 -149
-10 0 -4 125 7 153 8 23 21 21 29 -4z m505 -72 c13 -52 13 -59 -3 -74 -15 -15
-17 -15 -27 11 -5 15 -10 50 -10 77 0 68 20 60 40 -14z m4420 32 c-14 -11 -40
-27 -59 -35 -31 -14 -35 -14 -50 1 -15 15 -14 18 8 36 16 13 38 19 75 19 l51
0 -25 -21z m-2125 -19 c9 -15 -14 -40 -31 -33 -22 8 -18 43 5 43 11 0 23 -5
26 -10z m-2500 -65 c11 -69 2 -262 -13 -277 -26 -26 -35 8 -35 139 -1 123 10
183 32 183 5 0 13 -20 16 -45z m2138 13 c-9 -49 -51 -128 -68 -128 -26 0 -17
43 21 103 40 64 56 73 47 25z m2905 -21 c2 -15 -1 -27 -5 -27 -15 0 -33 23
-33 43 0 30 34 16 38 -16z m-9650 -165 c3 -17 -2 -22 -17 -22 -14 0 -21 6 -21
18 0 38 33 41 38 4z m8948 -24 c21 -33 -12 -118 -45 -118 -43 0 -53 46 -21 98
20 33 52 42 66 20z m-9202 -90 c8 -13 6 -22 -8 -37 -26 -28 -46 -27 -46 3 0
55 29 73 54 34z m5396 -43 c0 -14 -4 -25 -10 -25 -5 0 -10 11 -10 25 0 14 5
25 10 25 6 0 10 -11 10 -25z m2390 -259 c-33 -34 -61 55 -59 187 l1 82 33
-130 c18 -71 29 -134 25 -139z m1314 211 c7 -27 6 -41 -3 -50 -16 -16 -41 16
-41 53 0 54 30 52 44 -3z m-7963 23 c27 -15 24 -40 -5 -40 -28 0 -40 14 -32
35 6 18 11 18 37 5z m1259 -50 c15 -27 5 -40 -31 -40 -33 0 -48 22 -29 45 18
21 47 19 60 -5z m6450 -5 c0 -31 -24 -81 -42 -88 -18 -6 -38 3 -38 18 0 16 58
95 70 95 6 0 10 -11 10 -25z m430 -73 c0 -38 -30 -114 -48 -126 -26 -16 -19
60 13 137 19 45 35 40 35 -11z m-8302 -34 c7 -7 12 -20 12 -30 0 -16 -3 -17
-20 -8 -11 6 -24 19 -30 30 -9 17 -8 20 8 20 10 0 23 -5 30 -12z m5624 -24
c11 -37 1 -147 -17 -190 -8 -20 -21 -34 -31 -34 -14 0 -16 7 -10 48 4 26 9 74
12 107 8 85 13 107 26 103 7 -3 16 -18 20 -34z m138 -65 c0 -15 -6 -32 -13
-38 -27 -21 -36 15 -16 66 8 22 12 24 19 13 6 -8 10 -27 10 -41z m1680 27 c0
-14 -12 -39 -27 -57 -51 -61 -83 -94 -83 -85 0 13 94 166 102 166 5 0 8 -11 8
-24z m-2792 -19 c4 -20 -25 -34 -40 -19 -15 15 -1 44 19 40 10 -2 19 -11 21
-21z m4810 -39 c-3 -35 -28 -52 -28 -20 0 28 10 52 22 52 5 0 8 -14 6 -32z
m-5248 -64 c0 -16 -7 -39 -15 -50 -13 -17 -14 -13 -15 50 0 64 1 68 15 50 8
-10 15 -33 15 -50z m-431 19 c21 -76 8 -273 -18 -273 -13 0 -23 146 -15 232 4
43 10 78 15 78 4 0 13 -17 18 -37z m-2239 -23 c31 -62 44 -133 30 -175 -6 -19
-16 -35 -21 -35 -33 0 -80 183 -60 233 13 34 25 29 51 -23z m-1445 10 c16 -18
16 -20 1 -26 -19 -7 -46 12 -46 32 0 20 24 17 45 -6z m2855 -16 c12 -32 13
-104 1 -104 -11 0 -41 73 -41 99 0 38 26 42 40 5z m-655 -57 c0 -50 -4 -71
-18 -84 -15 -16 -19 -16 -28 -3 -5 8 -7 37 -4 63 14 115 50 132 50 24z m365
19 c0 -14 -4 -28 -10 -31 -6 -4 -10 7 -10 24 0 17 5 31 10 31 6 0 10 -11 10
-24z m8158 -2 c-3 -16 -94 -51 -104 -41 -3 2 13 16 33 30 44 30 76 35 71 11z
m-1196 -66 c19 -71 11 -106 -22 -88 -10 5 -22 19 -25 31 -7 22 12 119 24 119
4 0 14 -28 23 -62z m-6314 14 c2 -13 -4 -42 -13 -65 -33 -85 -68 -157 -75
-157 -14 0 -30 105 -21 143 19 81 101 140 109 79z m1280 -73 c12 -47 12 -68 0
-125 -23 -120 -58 -85 -58 59 0 100 7 129 29 125 10 -2 21 -23 29 -59z m210
-23 c5 -69 -13 -223 -29 -247 -10 -16 -13 289 -3 316 12 31 28 -3 32 -69z
m1462 9 c0 -14 -4 -25 -10 -25 -5 0 -10 11 -10 25 0 14 5 25 10 25 6 0 10 -11
10 -25z m2900 17 c0 -15 -32 -52 -40 -47 -13 8 10 55 27 55 7 0 13 -3 13 -8z
m2240 -42 c0 -31 -16 -41 -26 -15 -8 19 2 45 16 45 5 0 10 -13 10 -30z m-450
0 c0 -19 -27 -64 -50 -85 l-23 -20 6 39 c3 21 14 47 23 57 19 21 44 25 44 9z
m-6683 -72 c-7 -53 -27 -86 -46 -74 -16 10 -13 35 9 84 27 60 44 55 37 -10z
m1082 -39 c6 -17 8 -43 5 -58 -9 -43 -26 -81 -35 -81 -10 0 -12 153 -2 163 13
13 21 7 32 -24z m-1434 2 c7 -23 -14 -73 -29 -68 -25 8 -17 87 9 87 7 0 16 -8
20 -19z m7385 -53 c0 -49 -106 -146 -132 -120 -14 14 15 66 70 124 48 51 62
50 62 -4z m-4936 6 c13 -34 3 -94 -15 -94 -5 0 -9 25 -9 55 0 53 11 72 24 39z
m-787 -20 c7 -18 -8 -48 -43 -90 l-25 -29 4 54 c3 37 10 59 23 68 23 17 33 16
41 -3z m2776 0 c9 -10 -4 -34 -19 -34 -8 0 -14 6 -14 13 0 22 19 35 33 21z
m-9532 -103 c24 -77 37 -201 22 -201 -26 0 -73 160 -73 247 0 39 2 44 15 33 8
-7 24 -42 36 -79z m668 43 c38 -48 21 -84 -34 -70 -31 8 -55 76 -35 100 15 19
39 8 69 -30z m897 -19 c3 -13 4 -32 2 -42 -3 -14 -7 -12 -21 14 -9 18 -17 39
-17 47 0 23 29 8 36 -19z m6878 -32 c-1 -49 -72 -198 -94 -198 -21 0 -18 86 5
154 16 50 57 95 79 88 6 -2 11 -22 10 -44z m-6072 13 c11 -26 5 -56 -12 -56
-15 0 -34 46 -27 64 9 23 26 19 39 -8z m7208 -4 c0 -4 -5 -13 -12 -20 -18 -18
-28 -15 -28 8 0 13 7 20 20 20 11 0 20 -4 20 -8z m-5681 -51 c19 -58 14 -151
-11 -201 -13 -24 -29 -46 -37 -48 -12 -4 -13 14 -8 109 7 118 23 198 36 183 5
-5 13 -24 20 -43z m5247 -5 c9 -38 -59 -187 -78 -168 -18 18 37 192 61 192 6
0 13 -11 17 -24z m-1151 -69 c0 -80 -11 -125 -28 -108 -13 13 -16 144 -4 175
14 36 32 -1 32 -67z m5053 34 c5 -47 -28 -82 -42 -44 -9 22 13 85 27 80 7 -2
13 -18 15 -36z m-14889 15 c29 -16 91 -80 91 -96 0 -20 -20 -18 -56 6 -46 30
-104 84 -104 96 0 13 39 9 69 -6z m12782 -53 c-9 -15 -10 -12 -10 17 0 29 1
32 10 18 7 -12 7 -24 0 -35z m-10548 -61 c19 -37 42 -85 51 -107 l16 -40 -55
59 c-50 54 -85 127 -85 177 0 24 38 -22 73 -89z m6795 53 c4 -50 -5 -85 -22
-85 -24 0 -33 60 -16 105 14 37 34 26 38 -20z m-3782 -30 c16 -24 33 -155 21
-155 -9 0 -41 66 -57 113 -20 62 4 91 36 42z m5494 -21 c0 -21 -4 -33 -10 -29
-17 10 -11 65 7 65 2 0 3 -16 3 -36z m1060 29 c0 -20 -44 -93 -56 -93 -8 0
-14 2 -14 5 0 8 31 68 42 83 11 13 28 16 28 5z m-10962 -69 c25 -17 21 -34 -9
-34 -24 0 -79 27 -79 39 0 26 44 23 88 -5z m-384 -94 c44 -44 77 -83 73 -86
-16 -16 -187 123 -187 152 0 32 38 9 114 -66z m2154 -11 c33 -33 56 -85 43
-93 -9 -6 -64 49 -80 81 -26 51 -7 57 37 12z m-1621 -16 c31 -23 53 -52 53
-67 0 -24 -124 34 -141 66 -25 46 28 46 88 1z m7813 0 c0 -19 -3 -24 -10 -17
-6 6 -8 18 -4 27 9 24 14 21 14 -10z m-9440 -13 c23 -23 26 -50 7 -50 -18 0
-57 38 -57 55 0 21 27 18 50 -5z m9088 -17 c4 -40 -24 -111 -39 -96 -17 17
-23 88 -9 112 16 32 44 23 48 -16z m3072 -6 c0 -19 -50 -117 -60 -117 -9 0 6
49 30 103 14 28 30 36 30 14z m-9048 -41 c11 -26 6 -56 -10 -56 -13 0 -35 57
-27 69 10 18 25 13 37 -13z m3178 -1 c0 -14 -4 -25 -10 -25 -5 0 -10 11 -10
25 0 14 5 25 10 25 6 0 10 -11 10 -25z m2062 -77 c-11 -42 -38 -45 -35 -3 1
16 8 43 15 59 l12 29 8 -25 c5 -15 5 -41 0 -60z m294 26 c8 -56 -2 -174 -16
-188 -7 -7 -10 29 -10 112 0 124 13 162 26 76z m-8429 4 c25 -24 31 -58 9 -58
-16 0 -46 42 -46 65 0 21 10 19 37 -7z m5732 -27 c6 -19 11 -50 11 -70 l-1
-36 -15 28 c-18 33 -32 137 -17 122 6 -5 15 -25 22 -44z m6977 -5 c-11 -67
-37 -139 -48 -128 -10 10 3 108 21 155 16 42 35 23 27 -27z m444 41 c0 -7 -14
-26 -32 -43 l-31 -29 23 43 c24 42 40 54 40 29z m-11285 -27 c0 -22 -29 -18
-33 3 -3 14 1 18 15 15 10 -2 18 -10 18 -18z m7635 -27 c-1 -24 -35 -99 -50
-108 -19 -11 -43 21 -43 56 0 21 7 38 22 51 30 24 71 24 71 1z m526 -28 c8
-33 -17 -137 -35 -143 -11 -4 -13 9 -9 70 3 41 8 80 12 86 12 19 25 14 32 -13z
m-2625 -12 c13 -34 6 -120 -10 -136 -19 -19 -31 10 -31 75 0 87 19 116 41 61z
m-4037 -45 c29 -65 41 -118 28 -118 -33 0 -90 117 -76 154 11 28 24 18 48 -36z
m-3614 11 c0 -10 -4 -19 -9 -19 -14 0 -33 28 -27 39 10 16 36 1 36 -20z m9164
-32 c0 -46 -18 -82 -36 -71 -11 7 -5 95 7 115 15 23 30 0 29 -44z m5906 43 c0
-15 -142 -181 -196 -229 l-49 -43 -3 30 c-4 43 23 90 56 98 52 13 81 34 128
94 44 57 64 72 64 50z m-11710 -54 c16 -20 9 -60 -12 -64 -18 -4 -53 52 -43
68 9 15 41 12 55 -4z m6155 3 c11 -17 8 -130 -3 -141 -24 -24 -49 106 -28 141
9 14 23 14 31 0z m1319 -6 c8 -20 -23 -66 -48 -71 -21 -4 -22 35 0 66 18 26
39 29 48 5z m-6222 -20 c32 -35 55 -79 67 -132 10 -46 3 -52 -19 -17 -8 13
-28 43 -44 67 -41 62 -60 109 -43 109 7 0 25 -12 39 -27z m-3207 7 c4 -6 4
-18 1 -27 -5 -12 -9 -13 -21 -3 -8 7 -15 19 -15 26 0 16 26 19 35 4z m12255
-54 c-13 -41 -56 -84 -70 -70 -11 11 7 50 48 104 21 28 27 31 30 17 2 -9 -1
-32 -8 -51z m953 52 c11 -33 -103 -243 -128 -235 -29 11 19 159 69 212 35 37
51 43 59 23z m-5599 -30 c9 -35 7 -86 -3 -93 -14 -8 -19 5 -27 63 -5 43 -4 52
9 52 8 0 17 -10 21 -22z m-2660 -53 c7 -59 -5 -90 -23 -57 -12 23 -15 105 -4
116 12 11 20 -7 27 -59z m4930 49 c9 -23 -2 -54 -20 -54 -14 0 -19 27 -8 54 8
21 20 20 28 0z m-10625 -19 c16 -8 41 -29 56 -47 28 -34 69 -117 61 -125 -12
-12 -50 14 -105 73 -56 60 -72 90 -54 107 9 9 10 9 42 -8z m4741 -32 c21 -48
23 -93 5 -95 -17 -2 -35 45 -35 95 0 26 2 47 5 47 2 0 13 -21 25 -47z m6287
21 c8 -21 -13 -64 -32 -64 -17 0 -19 18 -5 54 11 29 28 34 37 10z m-4887 -29
c0 -19 -4 -35 -10 -35 -11 0 -14 53 -3 63 11 12 13 8 13 -28z m2120 5 c0 -16
-4 -30 -10 -30 -5 0 -10 14 -10 30 0 17 5 30 10 30 6 0 10 -13 10 -30z m4130
-11 c0 -64 -67 -114 -100 -74 -16 19 -5 49 31 80 43 36 69 33 69 -6z m480 12
c0 -26 -17 -36 -35 -21 -18 15 -8 40 16 40 12 0 19 -7 19 -19z m-5483 -102
c-8 -62 -33 -123 -48 -113 -15 9 -6 155 12 199 l11 30 15 -35 c10 -23 13 -51
10 -81z m-6890 45 c-10 -10 -37 16 -37 34 0 13 4 12 22 -5 12 -13 19 -25 15
-29z m8541 -6 c-2 -39 -7 -54 -19 -56 -11 -2 -18 6 -22 24 -6 35 11 84 30 84
11 0 13 -12 11 -52z m2312 -61 c-17 -84 -80 -166 -80 -105 0 25 36 139 61 192
l14 29 8 -30 c6 -19 5 -51 -3 -86z m2110 74 c0 -24 -37 -71 -56 -71 -22 0 -17
25 12 59 29 35 44 39 44 12z m-1954 -26 c8 -32 -13 -60 -32 -44 -17 14 -18 41
-2 57 18 18 27 15 34 -13z m-7127 -11 c29 -36 14 -55 -16 -20 -12 15 -23 31
-23 37 0 17 18 9 39 -17z m4401 0 c12 -31 13 -74 2 -74 -4 0 -14 17 -21 38 -8
20 -16 43 -18 50 -3 6 2 12 11 12 9 0 21 -12 26 -26z m4815 4 c-14 -44 -77
-156 -101 -179 -18 -16 -27 -20 -35 -12 -8 8 -2 28 21 72 52 97 134 182 115
119z m-4264 -149 c-7 -22 -18 -39 -26 -39 -21 0 -19 69 3 139 l17 56 9 -59 c6
-39 5 -70 -3 -97z m-1592 110 c14 -41 14 -66 -1 -75 -16 -10 -38 25 -38 61 0
54 22 61 39 14z m-8159 -15 c0 -17 -27 -18 -33 -1 -2 6 -2 18 1 25 6 16 32 -4
32 -24z m13623 -23 c-21 -27 -53 -40 -53 -21 0 6 14 26 32 43 37 37 52 21 21
-22z m-7063 -1 c0 -22 -4 -40 -10 -40 -11 0 -14 63 -3 73 11 12 13 8 13 -33z
m2187 -42 c-2 -18 -4 -6 -4 27 0 33 2 48 4 33 2 -15 2 -42 0 -60z m288 -99
c-9 -27 -19 -49 -22 -49 -10 0 5 143 19 185 l13 40 3 -63 c2 -40 -3 -82 -13
-113z m-3489 125 c8 -20 14 -52 12 -72 l-3 -37 -17 31 c-23 42 -35 114 -19
114 7 0 19 -16 27 -36z m1865 -89 c10 -76 5 -150 -11 -160 -13 -8 -22 26 -27
111 -6 94 3 168 18 142 5 -9 14 -51 20 -93z m-3232 76 c6 -10 13 -38 17 -61 6
-34 4 -42 -7 -38 -20 6 -62 86 -55 103 8 21 33 19 45 -4z m841 -22 c7 -11 9
-24 5 -27 -9 -9 -40 13 -43 32 -5 23 25 20 38 -5z m216 -14 c16 -39 18 -81 5
-89 -16 -10 -34 24 -39 74 -5 60 12 68 34 15z m7449 -18 c4 -18 1 -45 -5 -61
-9 -23 -13 -26 -25 -16 -15 13 -21 90 -8 103 15 16 33 5 38 -26z m-607 -11 c4
-33 -27 -74 -40 -54 -7 12 -2 63 9 81 10 16 28 0 31 -27z m-5198 -88 c0 -88
-10 -115 -29 -79 -14 26 -14 147 0 173 19 35 29 2 29 -94z m8794 14 c-41 -56
-107 -122 -121 -122 -30 0 -8 37 64 109 77 77 110 85 57 13z m-7476 1 c4 -24
-28 -92 -52 -112 -14 -12 -16 -7 -16 41 0 59 21 101 48 96 10 -2 18 -13 20
-25z m1907 3 c14 -21 14 -28 2 -58 -20 -46 -75 -97 -86 -79 -14 21 15 123 39
143 28 23 26 23 45 -6z m-8245 -1 c7 -9 10 -18 7 -21 -10 -11 -37 5 -37 21 0
19 14 19 30 0z m-770 -15 c0 -11 -4 -20 -10 -20 -5 0 -10 9 -10 20 0 11 5 20
10 20 6 0 10 -9 10 -20z m7360 -16 c0 -21 -4 -33 -10 -29 -17 10 -11 65 7 65
2 0 3 -16 3 -36z m660 -79 c0 -101 -13 -125 -36 -70 -19 45 -15 134 6 160 21
26 30 0 30 -90z m4080 39 c0 -3 -7 -21 -16 -40 -26 -55 -47 -38 -24 20 8 22
40 38 40 20z m-1490 -48 c0 -37 -30 -83 -48 -72 -11 7 7 60 31 94 14 19 17 15
17 -22z m-10985 4 c4 -6 4 -18 1 -27 -5 -12 -9 -13 -21 -3 -8 7 -15 19 -15 26
0 16 26 19 35 4z m13055 -30 c0 -15 -38 -32 -45 -20 -3 5 -3 15 0 20 8 13 45
13 45 0z m-1667 -47 c-7 -17 -33 -17 -33 0 0 21 22 39 31 25 4 -6 5 -17 2 -25z
m-4258 -13 c0 -8 -10 -16 -22 -18 -22 -3 -32 16 -16 32 12 11 38 2 38 -14z
m2595 3 c0 -18 -47 -73 -63 -73 -10 0 0 37 19 68 17 26 44 29 44 5z m-380 -16
c0 -28 -24 -64 -33 -50 -8 13 12 73 24 73 5 0 9 -10 9 -23z m2750 10 c0 -14
-20 -37 -32 -37 -10 0 -11 34 -1 43 11 12 33 8 33 -6z m2136 -12 c13 -32 -7
-66 -56 -96 -28 -17 -55 -39 -61 -50 -10 -20 -34 -25 -44 -9 -13 20 60 121
109 151 37 23 45 23 52 4z m-9876 -35 c11 -21 20 -53 20 -70 0 -25 -4 -30 -24
-30 -14 0 -32 10 -40 22 -27 39 -16 118 16 118 4 0 17 -18 28 -40z m827 -22
c-2 -13 -4 -3 -4 22 0 25 2 35 4 23 2 -13 2 -33 0 -45z m-4784 -7 c66 -70 75
-121 22 -121 -36 0 -77 60 -83 120 -3 30 0 50 5 50 6 0 31 -22 56 -49z m6607
2 c-1 -44 -2 -47 -15 -29 -16 21 -20 58 -8 69 16 16 23 4 23 -40z m7970 32 c0
-15 -74 -75 -93 -75 -14 0 65 88 81 89 6 1 12 -6 12 -14z m-15560 -24 c14 -27
13 -41 -3 -41 -17 0 -59 44 -50 53 13 14 43 7 53 -12z m8578 -83 c-6 -89 -20
-130 -34 -94 -8 20 1 170 11 186 3 5 11 7 17 4 7 -4 9 -39 6 -96z m2952 81 c0
-20 -34 -77 -54 -91 -17 -12 -28 3 -21 31 6 26 52 81 67 81 4 0 8 -9 8 -21z
m-2292 -2 c16 -19 26 -67 13 -67 -11 0 -41 51 -41 70 0 14 15 13 28 -3z m3372
-21 c0 -18 -26 -40 -34 -27 -9 14 4 41 20 41 8 0 14 -6 14 -14z m-5350 -32 c0
-21 -4 -33 -10 -29 -17 10 -11 65 7 65 2 0 3 -16 3 -36z m1026 -47 c-25 -52
-56 -90 -56 -70 0 22 41 128 53 135 27 17 29 -13 3 -65z m2000 62 c8 -14 -57
-82 -68 -71 -10 10 8 63 25 74 17 11 35 10 43 -3z m-10026 -121 c0 -4 -5 -8
-10 -8 -11 0 -50 59 -50 75 1 11 60 -55 60 -67z m10100 59 c0 -7 -6 -22 -14
-33 -22 -28 -41 -6 -20 24 17 24 34 29 34 9z m228 -11 c2 -9 -2 -24 -9 -32
-17 -21 -33 -2 -25 31 7 28 29 29 34 1z m-9700 -42 c32 -25 68 -81 58 -91 -7
-7 -71 44 -116 92 l-35 38 30 -7 c17 -4 45 -19 63 -32z m11290 -44 c6 -103
-37 -177 -87 -150 -28 14 -27 27 9 102 16 34 30 70 30 79 0 21 11 30 30 27 11
-2 16 -18 18 -58z m-8203 27 c21 -33 39 -87 30 -95 -12 -12 -75 66 -75 93 0
32 24 33 45 2z m440 -29 c26 -56 33 -94 14 -82 -13 7 -59 103 -59 122 0 28 23
8 45 -40z m-1371 -10 c9 -12 16 -35 16 -49 0 -37 46 -92 71 -84 14 5 17 2 13
-9 -10 -26 -41 -18 -68 17 -24 31 -66 119 -66 138 0 16 19 9 34 -13z m10116 9
c0 -7 -13 -26 -30 -42 -35 -34 -38 -29 -9 19 21 37 39 47 39 23z m-9372 -31
c2 -10 -1 -23 -7 -29 -15 -15 -46 16 -37 38 8 21 40 15 44 -9z m7678 -28 c-13
-106 -61 -207 -86 -181 -9 8 -8 25 5 70 22 75 63 163 77 163 7 0 8 -18 4 -52z
m-586 0 c0 -37 -28 -100 -47 -106 -23 -7 -17 94 7 118 28 28 40 25 40 -12z
m2430 7 c0 -18 -5 -25 -20 -25 -24 0 -25 8 -3 32 21 23 23 23 23 -7z m-11464
-21 c62 -29 82 -50 66 -66 -26 -26 -123 27 -154 85 -9 17 -7 18 14 12 12 -4
46 -18 74 -31z m6631 -20 c14 -46 17 -144 4 -144 -11 0 -50 81 -57 120 -7 31
11 73 29 67 7 -2 17 -21 24 -43z m-367 9 c0 -32 -35 -113 -48 -113 -16 0 -32
25 -32 51 0 30 44 89 66 89 9 0 14 -10 14 -27z m-3102 -51 c-2 -7 -7 -14 -12
-15 -15 -3 -30 29 -22 49 7 18 8 18 22 -1 8 -11 13 -26 12 -33z m-2092 23 c18
-14 17 -15 -15 -13 -19 2 -36 9 -39 16 -5 17 30 15 54 -3z m13468 -28 c-7 -20
-34 -23 -34 -4 0 19 22 39 32 29 5 -5 6 -16 2 -25z m-6408 -54 c-8 -75 -32
-163 -47 -177 -15 -14 -5 79 17 170 21 81 39 85 30 7z m1138 41 c8 -20 -2 -54
-14 -54 -15 0 -22 20 -16 46 7 28 21 31 30 8z m-2464 -27 c0 -17 -34 -49 -43
-41 -3 3 -1 17 5 30 12 26 38 33 38 11z m5868 -13 c4 -27 -23 -62 -37 -48 -8
7 -8 19 0 43 12 34 32 37 37 5z m-9308 -39 c6 -19 9 -41 7 -48 -5 -13 -37 53
-37 78 0 26 17 8 30 -30z m1120 15 c0 -11 -4 -20 -10 -20 -5 0 -10 9 -10 20 0
11 5 20 10 20 6 0 10 -9 10 -20z m10355 -15 c0 -11 -7 -21 -16 -23 -18 -3 -33
23 -23 39 10 17 39 5 39 -16z m-6230 -73 c-8 -32 -30 -103 -49 -157 -20 -55
-36 -101 -36 -102 0 -2 -7 -3 -16 -3 -14 0 -15 8 -9 58 21 171 74 302 110 272
11 -9 10 -22 0 -68z m-6365 32 c52 -60 65 -103 26 -88 -21 8 -86 92 -86 110 0
25 27 15 60 -22z m9412 -11 c-15 -26 -82 -89 -82 -76 0 6 12 26 27 45 45 54
77 73 55 31z m1819 -12 c-15 -26 -101 -101 -117 -101 -35 0 -10 44 51 89 47
36 82 42 66 12z m-9041 -16 c0 -8 -4 -17 -10 -20 -6 -4 -10 5 -10 20 0 15 4
24 10 20 6 -3 10 -12 10 -20z m3221 -107 c-8 -28 -9 -22 -9 42 0 70 1 72 10
33 5 -26 5 -54 -1 -75z m-2067 69 c8 -21 6 -31 -6 -43 -15 -15 -17 -14 -28 6
-14 26 -5 73 13 67 7 -2 16 -16 21 -30z m6886 11 c0 -7 -19 -51 -43 -98 -32
-65 -47 -86 -64 -88 -46 -7 -23 59 54 156 34 42 53 53 53 30z m-2366 -35 c-28
-62 -53 -137 -54 -155 0 -10 -5 -18 -11 -18 -21 0 21 159 53 197 21 26 28 12
12 -24z m-3154 -83 c0 -16 -4 -30 -10 -30 -5 0 -10 14 -10 30 0 17 5 30 10 30
6 0 10 -13 10 -30z m8370 -9 c0 -26 -21 -43 -37 -30 -16 14 -17 41 -1 57 14
14 38 -2 38 -27z m-15450 14 c0 -9 -7 -18 -16 -22 -18 -7 -39 11 -30 26 11 17
46 13 46 -4z m4082 -37 l3 -53 128 0 c118 0 129 -2 145 -21 9 -12 37 -31 62
-43 25 -13 75 -47 110 -77 35 -30 68 -54 72 -54 4 0 8 -5 8 -10 0 -6 41 -60
90 -120 59 -72 90 -118 90 -134 0 -13 10 -64 22 -113 21 -80 23 -109 21 -318
-3 -312 -29 -511 -72 -545 -10 -8 -42 -62 -71 -120 -28 -58 -61 -116 -73 -128
-20 -22 -76 -52 -154 -82 -18 -7 -33 -14 -33 -15 0 -2 13 -34 30 -72 38 -90
64 -243 41 -243 -11 0 -55 105 -82 200 -12 41 -25 79 -30 84 -4 5 -20 -4 -36
-20 l-28 -28 -568 1 c-313 1 -571 4 -575 7 -3 3 -7 30 -10 59 -4 46 -1 57 21
83 l25 29 174 1 c174 0 202 4 212 30 18 46 26 245 31 765 l5 586 -42 46 c-70
74 -107 85 -125 37 -6 -16 -16 -30 -23 -30 -6 0 -16 14 -21 30 l-11 30 -89 0
c-94 0 -141 14 -153 45 -9 25 -7 68 4 102 9 25 20 33 68 47 31 9 70 18 86 19
18 2 32 11 36 23 7 18 7 18 14 -2 4 -13 23 -28 50 -38 36 -14 83 -16 327 -14
l284 3 1 36 c2 82 31 95 36 17z m1208 -5 c0 -28 -14 -29 -40 -3 -23 23 -26 46
-7 53 18 7 47 -23 47 -50z m9828 5 c-2 -28 -8 -34 -30 -36 -33 -4 -35 6 -7 42
28 35 41 33 37 -6z m-12678 2 c16 -30 2 -45 -21 -24 -10 9 -19 23 -19 31 0 20
28 16 40 -7z m9955 -46 c76 -19 143 -58 151 -88 3 -14 -5 -49 -21 -87 -46
-115 -59 -182 -95 -499 -25 -215 -25 -216 -5 -200 21 17 20 1 -4 -74 -11 -34
-22 -77 -25 -96 -4 -19 -15 -50 -26 -68 -79 -130 -193 5 -209 248 l-6 105 -19
-35 c-30 -55 -30 -18 -1 71 26 76 27 91 22 198 -4 87 -14 152 -42 261 -41 163
-42 208 -2 248 41 41 154 47 282 16z m-5695 -24 c0 -13 -7 -20 -20 -20 -13 0
-20 7 -20 20 0 13 7 20 20 20 13 0 20 -7 20 -20z m3755 -80 c-16 -33 -32 -60
-37 -60 -9 0 3 32 32 91 33 64 37 36 5 -31z m-12763 23 c24 -22 19 -57 -8 -61
-23 -3 -74 48 -74 75 0 20 55 11 82 -14z m15358 8 c0 -21 -30 -33 -51 -21 -10
7 -10 11 0 24 19 22 51 20 51 -3z m-11876 2 c301 -5 351 -8 368 -23 20 -16 20
-22 13 -367 l-7 -351 -39 -6 c-56 -9 -103 13 -119 55 -6 19 -15 95 -20 169
-10 177 -41 250 -126 293 -76 38 -189 23 -246 -33 l-28 -29 6 -628 c5 -553 8
-632 23 -662 28 -60 58 -74 173 -82 125 -8 155 -21 179 -74 l19 -40 -43 -38
c-36 -32 -47 -37 -77 -32 -19 3 -207 8 -418 12 l-382 5 -20 25 c-26 33 -27 94
-1 117 13 12 43 18 101 22 96 6 184 37 211 74 42 57 48 331 9 369 -26 24 -60
97 -60 127 0 24 3 26 28 21 l28 -6 -4 127 c-2 70 -7 140 -13 156 -15 49 -11
78 32 192 35 91 42 121 42 185 1 64 -4 85 -31 142 -44 95 -71 110 -186 104
-100 -5 -130 -20 -159 -80 -22 -48 -40 -222 -32 -312 l6 -71 -54 -51 c-66 -62
-110 -75 -159 -46 l-33 19 5 100 c3 54 5 193 5 307 l0 209 -27 22 c-32 25 -35
42 -11 68 15 17 39 18 358 18 188 0 498 -3 689 -7z m1858 -39 c25 -57 50 -197
42 -230 -18 -70 -73 57 -81 187 -7 103 6 117 39 43z m7852 17 c8 -12 -30 -58
-40 -49 -9 10 12 58 25 58 5 0 12 -4 15 -9z m1052 -47 c-4 -13 -11 -24 -16
-24 -14 0 -12 37 2 63 11 20 12 20 16 4 2 -10 1 -29 -2 -43z m-4986 0 c0 -14
-4 -23 -10 -19 -5 3 -10 15 -10 26 0 10 5 19 10 19 6 0 10 -12 10 -26z m5826
-42 c-15 -15 -16 -15 -16 1 0 9 6 26 13 38 12 20 12 20 15 -2 2 -12 -3 -29
-12 -37z m-15431 -108 c13 -60 27 -119 31 -131 8 -28 -7 -30 -29 -5 -32 35
-64 179 -52 233 11 48 24 23 50 -97z m11293 82 c2 -28 -3 -44 -22 -67 -14 -17
-26 -38 -26 -48 0 -18 -18 -41 -32 -41 -22 0 13 150 43 187 19 22 34 10 37
-31z m5602 5 c0 -32 -103 -172 -116 -158 -9 9 15 60 61 133 34 53 55 62 55 25z
m-14754 -37 c44 -69 87 -164 74 -164 -12 0 -79 99 -114 168 -37 74 -8 71 40
-4z m-1166 16 c22 -22 25 -36 9 -45 -14 -9 -49 24 -49 47 0 24 15 23 40 -2z
m9868 -11 c3 -27 -20 -55 -38 -44 -11 7 -13 35 -4 60 10 24 39 13 42 -16z
m2872 -27 c0 -4 -5 -13 -12 -20 -18 -18 -28 -15 -28 8 0 13 7 20 20 20 11 0
20 -4 20 -8z m-9331 -42 c22 -40 44 -173 22 -139 -8 13 -61 164 -61 175 0 16
20 -3 39 -36z m5828 -72 c-7 -56 -24 -91 -39 -82 -12 8 -2 132 14 173 l11 26
9 -35 c6 -19 8 -56 5 -82z m7393 79 c0 -24 -70 -132 -107 -165 -37 -33 -72
-39 -81 -14 -4 12 164 192 180 192 4 0 8 -6 8 -13z m-10092 -80 c-4 -39 -21
-45 -36 -12 -9 19 -9 32 -1 46 15 29 41 5 37 -34z m3302 25 c0 -24 -29 -64
-41 -56 -12 7 -3 52 13 71 13 16 28 7 28 -15z m3750 8 c0 -27 -67 -99 -119
-128 -37 -21 -41 -22 -41 -6 0 19 131 154 149 154 6 0 11 -9 11 -20z m-13870
-15 c0 -8 -4 -17 -10 -20 -6 -4 -10 5 -10 20 0 15 4 24 10 20 6 -3 10 -12 10
-20z m2706 -79 c3 -10 1 -23 -5 -29 -19 -19 -52 24 -58 74 l-5 44 31 -35 c17
-19 33 -43 37 -54z m8601 52 c-3 -13 -9 -45 -13 -73 -8 -62 -12 -69 -31 -54
-16 14 -13 35 14 107 16 44 39 59 30 20z m1813 12 c0 -17 -31 -72 -37 -67 -8
8 17 77 28 77 5 0 9 -5 9 -10z m-2248 -42 l170 -3 46 -52 c35 -38 56 -53 84
-58 55 -9 95 -47 113 -108 12 -42 15 -123 15 -457 0 -419 3 -460 40 -480 41
-22 117 -3 106 26 -7 19 12 111 30 144 l13 25 1 -34 0 -34 23 21 c35 33 74 44
116 32 63 -17 75 -38 68 -121 -6 -74 -27 -127 -87 -221 -27 -44 -33 -48 -69
-48 -21 0 -59 -3 -85 -6 -40 -6 -46 -10 -46 -30 0 -33 -18 -39 -43 -16 -12 11
-50 34 -84 51 -37 18 -68 42 -79 60 -12 21 -30 33 -58 40 -53 13 -98 2 -178
-41 -35 -20 -109 -50 -165 -67 -56 -18 -104 -39 -107 -47 -12 -32 -135 -7
-149 31 -5 11 -22 15 -70 15 -36 0 -79 3 -97 7 -48 9 -155 121 -194 203 -28
60 -31 73 -31 165 1 131 25 214 78 272 22 24 48 43 59 43 25 0 71 24 131 67
55 40 49 39 337 51 113 5 216 13 230 19 38 17 119 105 128 138 12 46 4 72 -36
114 -42 44 -116 71 -194 71 -33 0 -58 7 -76 20 -32 23 -155 46 -194 37 -37
-10 -46 -29 -62 -147 -20 -143 -21 -144 -140 -144 l-98 -1 -53 50 c-30 28 -57
62 -60 77 -22 88 197 298 339 326 33 7 76 12 97 12 26 0 39 5 44 18 7 16 8 16
12 0 4 -15 25 -17 175 -20z m-7859 -88 c36 -52 38 -77 3 -64 -20 8 -66 83 -66
108 0 29 23 13 63 -44z m4108 29 c6 -12 8 -30 5 -41 -5 -20 -3 -21 92 -12 223
20 292 -3 337 -108 17 -42 40 -58 84 -58 25 0 42 12 87 60 42 44 71 65 113 81
109 41 318 34 406 -14 53 -29 76 -77 82 -177 8 -109 -8 -161 -69 -224 l-48
-50 -1 -115 c-1 -64 -4 -129 -8 -146 l-7 -30 -7 25 c-4 14 -12 76 -18 138
l-12 112 -28 0 c-38 0 -65 29 -79 82 -33 135 -48 159 -124 194 -59 28 -112 31
-144 8 -12 -8 -47 -57 -77 -108 -49 -85 -104 -148 -149 -173 -15 -8 -17 -29
-17 -163 0 -161 3 -189 28 -336 16 -96 37 -143 75 -168 33 -22 143 -37 215
-30 81 9 113 -9 113 -62 0 -50 -16 -73 -63 -94 -39 -17 -73 -18 -457 -16 -432
2 -448 4 -470 46 -15 27 -12 97 5 129 20 40 61 51 190 51 99 0 114 2 130 20
10 11 23 20 30 20 6 0 22 11 35 25 30 32 53 177 39 250 -6 27 -9 147 -9 265 3
296 4 277 -29 311 -27 27 -35 29 -100 29 l-70 0 19 -46 c29 -68 36 -120 16
-127 -18 -7 -36 20 -36 52 0 12 -9 38 -20 58 -11 21 -20 43 -20 50 0 9 -16 13
-50 13 -91 0 -140 34 -140 96 0 15 -5 43 -12 61 -9 26 -9 36 0 45 9 9 12 5 12
-22 l0 -33 23 21 c12 11 39 28 60 37 32 13 36 19 31 40 -12 49 15 74 37 34z
m2352 -34 c142 -71 244 -187 284 -324 17 -57 18 -58 34 -37 17 20 18 20 25 2
4 -11 1 -40 -6 -65 -7 -25 -16 -79 -19 -119 -5 -58 -10 -77 -26 -88 -17 -12
-80 -15 -385 -14 -201 1 -367 0 -370 0 -3 -1 -27 -3 -55 -4 -57 -3 -145 -44
-169 -78 -9 -12 -16 -34 -16 -47 0 -68 101 -194 260 -323 l85 -69 80 4 c127 7
296 76 303 125 4 23 18 30 24 11 2 -6 39 18 82 53 43 35 87 69 97 77 25 18 65
7 85 -24 14 -22 15 -35 5 -102 -12 -83 -43 -148 -87 -182 -21 -16 -23 -23 -15
-40 12 -22 4 -54 -13 -48 -6 2 -15 13 -20 24 -10 20 -10 20 -65 -4 -31 -14
-79 -36 -108 -49 -46 -22 -65 -25 -190 -26 -76 0 -174 -1 -219 -2 -76 -1 -85
1 -166 41 -74 37 -99 57 -185 147 -55 58 -107 120 -117 139 -14 30 -16 78 -16
349 0 292 1 315 20 345 10 17 28 37 39 43 11 5 33 30 50 53 49 71 204 225 247
244 28 13 78 19 184 24 235 10 254 8 343 -36z m2835 20 c150 -34 248 -33 351
2 96 32 113 27 198 -54 124 -117 177 -122 243 -23 16 24 37 45 47 46 10 2 56
15 103 29 182 57 259 15 316 -171 56 -185 73 -368 46 -504 -11 -55 -11 -78 2
-151 11 -62 12 -97 6 -120 -6 -19 -10 -67 -10 -108 0 -74 0 -74 20 -56 14 13
24 15 31 8 15 -15 -9 -61 -35 -65 -17 -3 -23 -16 -36 -83 l-16 -80 -118 0
c-113 0 -119 1 -138 25 -39 48 1 146 70 170 47 16 48 20 27 80 -19 55 -19 115
1 176 13 39 18 104 21 314 5 263 5 265 -18 294 -25 32 -75 56 -117 56 -33 0
-82 -34 -82 -57 0 -8 -30 -45 -68 -82 -73 -72 -87 -101 -98 -210 -6 -52 -5
-61 8 -56 23 9 30 -22 13 -62 -11 -25 -19 -33 -30 -29 -12 4 -21 -5 -33 -32
-14 -30 -17 -66 -16 -189 1 -165 4 -174 58 -197 43 -18 60 -54 52 -110 -4 -25
-15 -55 -26 -68 -17 -22 -25 -23 -175 -25 -86 -1 -164 -5 -174 -8 -9 -2 -22
-19 -30 -37 -21 -49 -112 -188 -122 -188 -16 0 -9 63 11 108 11 24 36 63 56
87 19 24 33 48 30 54 -4 5 -20 13 -37 16 -24 5 -48 -1 -103 -26 l-71 -34 -168
2 c-94 1 -176 7 -187 13 -11 6 -27 22 -36 35 -22 34 -6 76 56 150 93 110 111
186 75 320 -18 64 -18 65 8 177 14 62 29 127 32 145 9 44 -12 179 -32 215 -10
16 -51 49 -91 74 -43 28 -79 58 -88 76 -40 77 34 176 132 178 17 0 81 -11 142
-25z m-7847 -5 c42 -10 97 -29 123 -40 90 -43 213 -189 283 -336 37 -77 38
-82 41 -216 3 -76 8 -138 12 -138 9 0 70 -91 98 -146 21 -42 34 -195 18 -211
-16 -17 -58 82 -97 232 -27 105 -28 108 -29 58 -1 -163 -75 -335 -198 -463
-47 -49 -52 -58 -42 -78 17 -39 11 -49 -13 -19 l-23 27 -54 -29 c-66 -35 -170
-54 -300 -55 -106 -1 -190 19 -252 60 -21 13 -49 24 -63 24 -37 0 -96 33 -121
67 -26 35 -35 57 -44 108 -4 22 -24 103 -44 180 -20 77 -42 193 -48 258 -9 84
-16 117 -25 117 -35 0 -73 136 -44 154 16 10 41 -5 56 -33 l13 -26 10 25 c6
14 29 47 51 73 75 89 129 229 101 262 -15 18 -25 105 -12 105 6 0 22 -14 36
-31 l27 -31 37 25 c59 39 118 66 175 82 77 21 237 19 328 -5z m10246 -76 c-7
-65 -51 -168 -69 -161 -27 9 -2 144 38 205 23 36 37 16 31 -44z m-12867 15 c7
-11 9 -27 6 -36 -9 -22 -36 3 -36 33 0 30 16 31 30 3z m11850 -74 c-17 -21
-30 -19 -30 5 0 24 33 46 38 24 2 -8 -2 -21 -8 -29z m-13524 -15 c15 -22 24
-43 21 -46 -10 -10 -57 44 -57 66 0 29 6 25 36 -20z m11644 -61 c-34 -100 -80
-163 -80 -110 0 25 47 137 74 176 30 43 32 13 6 -66z m-10610 66 c0 -8 -4 -15
-10 -15 -5 0 -10 7 -10 15 0 8 5 15 10 15 6 0 10 -7 10 -15z m-2716 -14 c23
-26 36 -146 15 -139 -21 7 -59 79 -59 114 0 48 16 57 44 25z m6912 -67 c16
-56 13 -77 -8 -56 -13 13 -38 104 -31 115 9 16 23 -6 39 -59z m9989 24 c-9
-28 -91 -185 -111 -212 -7 -11 -16 -17 -20 -14 -8 9 115 248 127 248 6 0 7
-10 4 -22z m-12912 -11 c23 -35 49 -129 38 -140 -12 -12 -45 37 -65 96 -22 65
-5 93 27 44z m14527 -15 c0 -22 -28 -45 -46 -38 -18 7 -18 9 5 27 24 20 41 24
41 11z m-15005 -52 c8 -16 15 -38 15 -50 0 -31 -27 -24 -39 11 -23 66 -5 95
24 39z m10175 -54 c0 -55 -29 -198 -42 -211 -14 -13 -4 143 12 208 15 59 30
61 30 3z m2340 -35 c0 -11 -4 -23 -10 -26 -6 -4 -10 5 -10 19 0 14 5 26 10 26
6 0 10 -9 10 -19z m-15326 -12 c14 -11 33 -34 41 -49 17 -33 20 -80 5 -80 -27
0 -108 119 -95 140 9 15 19 12 49 -11z m13961 -32 c-4 -14 -13 -31 -21 -38
-11 -9 -14 -7 -14 9 0 31 22 74 32 64 5 -5 6 -21 3 -35z m-14481 10 c38 -27
-2 -95 -41 -71 -22 14 -29 50 -13 70 15 17 31 18 54 1z m1799 -15 c11 -12 13
-22 7 -32 -13 -20 -44 -1 -48 29 -4 26 18 28 41 3z m13407 0 c0 -29 -89 -204
-100 -197 -18 11 -11 48 21 115 42 89 79 128 79 82z m-3720 -66 c0 -14 -4 -28
-10 -31 -6 -4 -10 7 -10 24 0 17 5 31 10 31 6 0 10 -11 10 -24z m5617 -16 c-7
-53 -108 -255 -127 -255 -12 0 -15 13 -14 57 1 67 37 149 88 203 45 47 60 46
53 -5z m1160 -5 c6 -16 -19 -50 -49 -66 -15 -8 -18 -5 -18 20 0 48 52 83 67
46z m-9907 -27 c33 -54 67 -245 47 -264 -17 -17 -97 203 -97 268 0 38 25 36
50 -4z m9024 -55 c-9 -27 -69 -71 -81 -60 -6 7 19 51 50 85 27 29 45 14 31
-25z m-8735 6 c14 -39 15 -146 1 -154 -19 -12 -43 46 -48 115 -4 65 -3 70 16
70 14 0 24 -10 31 -31z m-7789 -70 c25 -34 26 -59 2 -59 -26 0 -59 38 -77 89
-8 24 -15 45 -15 48 0 10 72 -52 90 -78z m-1216 -20 c46 -51 64 -88 51 -108
-20 -33 -71 20 -99 103 -19 58 -19 56 -7 56 5 0 30 -23 55 -51z m13744 13 c2
-20 -4 -44 -14 -59 -16 -25 -17 -26 -30 -8 -8 10 -14 30 -14 43 0 63 52 85 58
24z m-11423 -3 c4 -12 2 -26 -4 -32 -15 -15 -46 16 -38 37 9 23 34 20 42 -5z
m13575 -73 c0 -18 -46 -73 -54 -65 -5 5 40 79 49 79 3 0 5 -6 5 -14z m-12604
-22 c25 -17 74 -91 74 -112 0 -24 -29 -11 -68 32 -45 49 -64 80 -55 90 10 10
22 7 49 -10z m-456 -76 c39 -61 50 -98 31 -98 -21 0 -91 112 -91 145 0 30 21
14 60 -47z m8640 27 c15 -18 6 -45 -15 -45 -10 0 -15 10 -15 30 0 33 11 38 30
15z m4750 -13 c0 -20 -27 -62 -39 -62 -19 0 -19 30 0 54 24 30 39 33 39 8z
m-6550 -89 c0 -48 -4 -65 -15 -69 -52 -20 -75 105 -28 151 16 16 17 16 30 -1
7 -10 13 -45 13 -81z m7987 80 c3 -7 -5 -17 -16 -23 -18 -9 -21 -8 -21 8 0 32
28 43 37 15z m-7540 -65 c-2 -13 -4 -3 -4 22 0 25 2 35 4 23 2 -13 2 -33 0
-45z m3603 -100 c0 -36 -4 -48 -15 -48 -29 0 -41 116 -18 180 8 22 33 -77 33
-132z m-4254 25 c7 -49 -1 -70 -21 -53 -16 13 -31 113 -20 131 11 16 32 -25
41 -78z m6934 78 c0 -5 -7 -17 -16 -25 -28 -29 -42 -20 -24 15 11 19 40 27 40
10z m-6430 -173 c0 -47 -12 -54 -32 -20 -23 41 -29 78 -17 109 l11 28 19 -40
c10 -22 19 -57 19 -77z m3630 61 c0 -44 -20 -117 -36 -130 -12 -9 -14 -5 -14
23 0 43 28 138 40 138 6 0 10 -14 10 -31z m4083 -3 c3 -12 -30 -32 -39 -24
-11 12 5 40 21 36 9 -2 17 -7 18 -12z m217 1 c0 -21 -40 -90 -73 -124 -28 -29
-77 -46 -77 -25 0 14 39 65 85 113 48 50 65 59 65 36z m-2940 -72 c-24 -38
-48 -49 -29 -12 25 46 43 69 47 58 2 -6 -6 -27 -18 -46z m1860 42 c0 -7 -7
-22 -15 -33 -12 -16 -14 -17 -15 -2 0 23 11 48 21 48 5 0 9 -6 9 -13z m-16518
-24 c19 -17 24 -43 8 -43 -14 0 -50 42 -44 52 8 12 15 10 36 -9z m15776 -3
c52 -24 72 -64 72 -147 0 -66 -21 -117 -62 -147 -38 -27 -129 -33 -188 -11
-25 9 -56 18 -70 19 -14 1 -24 7 -23 14 2 6 -7 31 -19 54 -12 24 -24 67 -26
100 -8 105 35 137 183 137 68 1 100 -4 133 -19z m-14216 -65 c26 -39 48 -74
48 -78 0 -14 -62 41 -97 85 -18 23 -33 47 -33 55 0 32 36 4 82 -62z m1708 20
c16 -19 3 -40 -16 -24 -15 13 -19 39 -5 39 5 0 14 -7 21 -15z m12703 1 c3 -12
-30 -32 -39 -24 -11 12 5 40 21 36 9 -2 17 -7 18 -12z m-13672 -94 c36 -63
101 -223 95 -230 -5 -5 -136 255 -136 271 0 19 18 2 41 -41z m14131 -18 c-4
-23 -56 -132 -77 -158 -8 -11 -18 -17 -21 -14 -10 11 26 120 52 161 26 39 51
45 46 11z m1008 -107 c0 -28 -17 -47 -42 -47 -22 0 -23 13 -2 45 21 31 44 32
44 2z m-9329 -73 c10 -38 19 -78 19 -89 -1 -38 -28 12 -40 74 -7 31 -14 67
-17 81 -4 20 -3 22 7 13 7 -6 21 -42 31 -79z m-4477 57 c11 -12 14 -21 7 -25
-15 -10 -51 12 -51 29 0 21 24 19 44 -4z m8632 -33 c-9 -56 -26 -108 -35 -108
-4 0 -6 15 -4 33 7 56 25 117 36 117 6 0 7 -17 3 -42z m-9030 -104 c63 -102
104 -224 74 -224 -24 0 -133 179 -160 263 -6 21 -9 45 -6 54 6 14 9 14 27 -3
11 -10 40 -51 65 -90z m9514 96 c0 -19 -51 -134 -68 -153 -45 -51 -31 79 15
134 24 29 53 39 53 19z m-5876 -50 c26 -31 46 -87 46 -127 0 -42 -21 -24 -55
49 -50 103 -45 142 9 78z m11041 1 c9 -16 -28 -31 -48 -20 -10 6 -15 14 -12
20 8 12 52 12 60 0z m-11806 -15 c7 -8 11 -27 9 -43 l-3 -28 -18 32 c-9 18
-17 37 -17 43 0 15 16 12 29 -4z m7035 -4 c8 -24 -26 -184 -59 -282 l-25 -75
5 110 c6 119 17 181 42 232 17 37 29 42 37 15z m5349 -15 c6 -19 5 -32 -3 -42
-17 -21 -40 -1 -40 35 0 48 27 53 43 7z m-12778 -103 c38 -82 46 -115 20 -94
-8 7 -15 21 -15 30 0 10 -11 31 -24 47 -31 38 -46 67 -46 94 0 36 25 6 65 -77z
m4465 8 c0 -29 -4 -51 -9 -48 -14 9 -34 104 -26 124 12 32 35 -16 35 -76z
m3280 39 c16 -31 12 -56 -15 -81 -16 -15 -35 -54 -51 -107 -28 -91 -39 -106
-54 -69 -11 29 0 72 30 123 11 19 25 56 30 81 6 26 13 53 15 60 7 18 33 14 45
-7z m2030 -48 c-39 -73 -97 -153 -111 -153 -13 0 39 98 86 163 48 65 63 59 25
-10z m-821 -5 c-11 -19 -14 -20 -17 -6 -2 9 2 27 9 40 11 19 14 20 17 6 2 -9
-2 -27 -9 -40z m-11714 21 c4 -11 4 -24 0 -27 -9 -9 -36 28 -29 39 9 15 22 10
29 -12z m723 -53 c49 -49 73 -80 70 -93 -10 -52 -84 -3 -139 92 -58 100 -31
100 69 1z m1231 15 c23 -41 23 -60 2 -46 -11 6 -51 78 -51 90 0 19 28 -7 49
-44z m11679 -17 c-15 -32 -91 -94 -115 -94 -14 0 -14 3 -1 23 18 27 118 110
125 103 3 -2 -1 -17 -9 -32z m-8407 -42 c-9 -25 -9 -24 -10 18 0 36 2 41 10
27 7 -12 7 -27 0 -45z m-2706 28 c10 -11 15 -26 11 -36 -6 -15 -9 -15 -29 -1
-26 17 -36 57 -14 57 8 0 22 -9 32 -20z m7027 -19 c-4 -57 -48 -118 -69 -97
-10 9 48 137 61 133 6 -2 10 -19 8 -36z m-11687 -2 c4 -11 4 -23 1 -26 -10
-10 -35 18 -29 33 8 20 21 17 28 -7z m17045 12 c0 -9 -142 -175 -160 -186 -37
-23 30 77 103 153 40 41 57 51 57 33z m-16044 -15 c10 -8 16 -17 12 -21 -8 -8
-48 13 -48 25 0 14 13 12 36 -4z m5828 -5 c36 -40 75 -184 45 -165 -15 9 -79
144 -79 166 0 23 13 23 34 -1z m-2666 -37 c36 -25 103 -178 102 -233 -1 -31
-48 37 -64 91 -8 30 -31 72 -51 95 -19 23 -35 46 -35 52 0 16 22 14 48 -5z
m2272 -19 c0 -14 -4 -25 -10 -25 -11 0 -14 33 -3 43 11 11 13 8 13 -18z m3218
-73 c6 -100 -36 -188 -54 -115 -7 25 12 178 23 196 13 21 28 -19 31 -81z
m5128 66 c9 -15 -50 -68 -76 -68 -27 0 -25 12 9 49 30 32 55 39 67 19z m-5729
-51 c-3 -29 -12 -68 -20 -87 l-15 -35 -1 68 c-1 69 10 107 31 107 7 0 9 -18 5
-53z m6248 33 c17 -19 17 -21 -22 -60 -61 -60 -99 -51 -67 15 15 32 48 65 65
65 3 0 14 -9 24 -20z m-6824 -37 c-9 -15 -10 -12 -10 17 0 29 1 32 10 18 7
-12 7 -24 0 -35z m2557 13 c12 -23 11 -32 -1 -59 -8 -18 -23 -93 -32 -167 -9
-74 -21 -145 -26 -159 l-10 -24 -28 27 c-24 23 -29 25 -34 12 -13 -33 -29 -17
-22 22 10 56 92 338 105 362 14 26 31 22 48 -14z m-2804 2 c9 -35 7 -96 -3
-102 -11 -7 -31 47 -31 84 0 43 23 56 34 18z m546 -56 c12 -45 13 -102 2 -102
-8 0 -32 107 -32 139 0 24 19 -1 30 -37z m4280 0 c0 -16 -32 -52 -46 -52 -18
0 -18 10 2 38 14 21 44 31 44 14z m-370 -27 c13 -16 6 -35 -15 -35 -18 0 -28
17 -21 35 7 19 20 19 36 0z m-12952 -6 c-12 -7 -24 -7 -35 0 -15 9 -12 10 17
10 29 0 32 -1 18 -10z m14299 -132 c-65 -126 -111 -197 -121 -186 -3 2 8 29
24 59 17 30 51 96 76 145 25 50 53 98 62 108 36 41 22 -2 -41 -126z m1923 113
c0 -21 -30 -70 -49 -80 -28 -14 -31 -13 -31 14 0 15 12 34 31 50 32 28 49 33
49 16z m-13647 -57 c40 -59 60 -123 38 -123 -13 0 -44 56 -64 113 -19 57 -9
61 26 10z m3667 22 c14 -17 10 -47 -7 -52 -15 -5 -36 34 -29 53 7 18 20 18 36
-1z m11420 -24 c0 -15 -71 -114 -114 -159 -65 -69 -146 -109 -146 -73 0 16 75
94 161 165 92 78 99 83 99 67z m-197 -15 c3 -12 -30 -32 -39 -24 -11 12 5 40
21 36 9 -2 17 -7 18 -12z m-10314 -61 c16 -25 37 -76 47 -113 9 -37 24 -75 32
-85 18 -20 31 -177 15 -177 -12 0 -25 28 -64 133 -48 130 -83 287 -64 287 3 0
18 -20 34 -45z m-1279 10 c10 -26 4 -55 -11 -55 -12 0 -29 35 -29 59 0 29 28
26 40 -4z m2621 -32 c-9 -15 -10 -12 -10 17 0 29 1 32 10 18 7 -12 7 -24 0
-35z m-1921 -20 c0 -20 -17 -16 -34 9 -26 37 -20 55 9 28 14 -13 25 -29 25
-37z m1562 20 c14 -21 45 -60 70 -88 24 -27 48 -59 52 -69 7 -21 -11 -86 -24
-86 -26 0 -92 123 -124 228 -18 61 -8 67 26 15z m987 -188 c0 -37 -1 -38 -14
-21 -17 22 -35 101 -41 176 l-4 55 30 -85 c16 -47 29 -103 29 -125z m4621 187
c0 -16 -32 -52 -46 -52 -19 0 -18 19 3 42 16 18 43 25 43 10z m-1869 -165
c-25 -119 -52 -176 -83 -177 -24 0 24 186 74 297 l22 48 4 -36 c2 -20 -6 -79
-17 -132z m-2521 128 c0 -14 -4 -25 -10 -25 -5 0 -10 11 -10 25 0 14 5 25 10
25 6 0 10 -11 10 -25z m-9142 -7 c18 -18 15 -38 -5 -38 -28 0 -47 16 -40 34 8
19 28 21 45 4z m1648 -42 c52 -54 104 -140 104 -172 0 -15 -2 -15 -21 2 -12
10 -34 38 -50 60 -15 23 -48 65 -73 94 -43 50 -49 70 -23 70 6 0 34 -24 63
-54z m-1331 28 c20 -20 15 -39 -11 -39 -13 0 -20 8 -22 28 -4 30 9 35 33 11z
m5851 -18 c3 -8 2 -22 -3 -30 -13 -23 -37 -4 -28 23 7 24 23 28 31 7z m2111
-28 c-3 -7 -5 -2 -5 12 0 14 2 19 5 13 2 -7 2 -19 0 -25z m-4807 -8 c0 -20 -5
-30 -15 -30 -15 0 -21 40 -8 53 14 15 23 6 23 -23z m8365 -10 c13 -61 -23
-216 -49 -207 -18 6 -13 136 8 190 22 55 32 59 41 17z m2461 -24 c-9 -46 -63
-153 -82 -160 -41 -16 -17 67 50 173 31 49 42 43 32 -13z m-13830 7 c63 -71
63 -124 -1 -60 -22 22 -35 45 -35 61 0 33 5 33 36 -1z m9321 -20 c-3 -10 -5
-2 -5 17 0 19 2 27 5 18 2 -10 2 -26 0 -35z m2403 -24 c0 -28 -94 -283 -119
-322 -28 -44 -26 -22 9 91 16 54 37 131 46 172 9 41 21 78 27 82 17 10 37 -3
37 -23z m-4636 -6 c3 -16 8 -46 12 -68 4 -22 24 -86 45 -143 38 -101 48 -152
29 -152 -13 0 -26 28 -33 74 -3 21 -18 61 -33 90 -48 92 -72 226 -40 226 8 0
17 -12 20 -27z m8405 -5 c-17 -33 -81 -98 -97 -98 -19 0 14 54 56 91 40 35 57
38 41 7z m-519 -7 c0 -22 -15 -35 -30 -26 -7 4 -7 13 0 26 14 25 30 25 30 0z
m-14066 -56 c47 -45 64 -85 28 -66 -19 10 -102 96 -102 106 0 17 34 -1 74 -40z
m6521 -55 c21 -24 15 -35 -14 -25 -12 3 -21 15 -21 26 0 24 12 24 35 -1z
m3043 -36 c15 -45 10 -72 -18 -105 -17 -21 -21 -22 -30 -9 -11 15 -7 131 6
151 11 18 29 3 42 -37z m-11595 -27 c18 -34 16 -77 -3 -77 -4 0 -15 18 -24 40
-32 80 -11 109 27 37z m333 27 c50 -24 43 -37 -16 -32 -57 6 -65 10 -57 33 8
19 30 19 73 -1z m13044 -44 c0 -22 -4 -40 -10 -40 -5 0 -10 18 -10 40 0 22 5
40 10 40 6 0 10 -18 10 -40z m-6392 18 c18 -18 15 -28 -8 -28 -13 0 -20 7 -20
20 0 23 10 26 28 8z m-4820 -24 c12 -8 22 -22 22 -30 0 -22 -27 -17 -44 8 -28
39 -17 50 22 22z m11540 -31 c-3 -38 -21 -55 -31 -28 -8 19 9 65 23 65 7 0 10
-15 8 -37z m-1288 -2 c0 -24 -18 -37 -32 -23 -8 8 -7 16 2 27 17 21 30 19 30
-4z m730 -14 c-1 -12 -9 -38 -20 -57 l-19 -35 -1 43 c0 47 15 86 31 77 5 -4 9
-16 9 -28z m1631 -66 c-24 -45 -38 -58 -53 -43 -11 11 0 38 41 92 24 32 26 33
29 13 2 -12 -6 -40 -17 -62z m-331 -9 c-12 -46 -49 -98 -50 -71 0 22 27 99 42
117 17 20 21 0 8 -46z m-8675 -27 c45 -80 132 -273 140 -311 l7 -29 -21 25
c-56 68 -193 380 -166 380 2 0 20 -29 40 -65z m1833 -35 c3 -39 1 -60 -6 -60
-24 0 -50 91 -37 130 13 40 38 -1 43 -70z m2492 20 c0 -40 -4 -70 -10 -70 -11
0 -13 81 -4 118 10 37 14 25 14 -48z m3956 44 c11 -42 -7 -99 -31 -99 -27 0
-31 38 -9 86 20 46 31 49 40 13z m-6807 -10 c19 -24 39 -109 28 -120 -8 -8
-56 78 -63 114 -8 39 7 42 35 6z m6271 -16 c0 -49 -47 -169 -71 -184 -21 -12
-4 87 24 149 27 59 47 74 47 35z m1780 15 c-1 -14 -27 -43 -39 -43 -15 0 -14
23 1 38 13 13 38 16 38 5z m-3810 -58 c0 -30 -4 -55 -10 -55 -5 0 -10 25 -10
55 0 30 5 55 10 55 6 0 10 -25 10 -55z m-5420 24 c0 -24 -23 -21 -28 4 -2 10
3 17 12 17 10 0 16 -9 16 -21z m513 4 c29 -33 98 -186 87 -197 -15 -15 -44 17
-79 88 -48 99 -53 158 -8 109z m3886 -18 c11 -23 12 -40 3 -88 -21 -114 -52
-111 -60 6 -7 108 23 151 57 82z m821 10 c0 -8 -4 -17 -10 -20 -6 -4 -10 5
-10 20 0 15 4 24 10 20 6 -3 10 -12 10 -20z m4785 -6 c9 -13 -21 -46 -58 -65
-24 -13 -28 -13 -34 2 -8 21 7 45 38 61 30 16 46 16 54 2z m-12201 -30 c40
-47 110 -169 101 -177 -15 -14 -154 166 -155 201 0 18 30 4 54 -24z m10324 9
c-20 -30 -66 -63 -75 -55 -9 10 57 77 75 77 12 0 12 -3 0 -22z m-2258 -32 c0
-12 -44 -145 -56 -168 -20 -39 -37 -36 -29 5 19 86 55 167 75 167 6 0 10 -2
10 -4z m3550 -29 c0 -28 -41 -132 -69 -176 -27 -42 -101 -122 -101 -110 0 25
38 121 67 172 60 102 103 150 103 114z m1599 -5 c15 -27 24 -88 16 -111 -5
-17 -15 -21 -50 -21 -78 0 -89 13 -59 73 21 41 54 77 70 77 7 0 18 -8 23 -18z
m-5376 -29 c9 -9 -12 -33 -29 -33 -17 0 -18 27 -1 33 18 8 23 8 30 0z m1967
-72 c0 -19 -23 -35 -34 -24 -7 8 12 43 24 43 6 0 10 -9 10 -19z m455 9 c9 -15
-14 -40 -31 -33 -22 8 -18 43 5 43 11 0 23 -5 26 -10z m-8715 -36 c0 -13 -4
-24 -10 -24 -5 0 -10 14 -10 31 0 17 4 28 10 24 6 -3 10 -17 10 -31z m-1822
-2 c4 -25 -13 -30 -22 -6 -9 25 -7 36 7 32 6 -3 13 -14 15 -26z m10710 -5 c2
-19 -7 -36 -37 -66 -23 -23 -50 -41 -61 -41 -28 0 -25 15 9 42 16 13 36 40 45
61 18 43 39 45 44 4z m-12192 -33 c7 -40 1 -52 -20 -35 -15 13 -29 68 -20 83
10 16 33 -12 40 -48z m14414 43 c0 -8 -9 -22 -20 -32 -23 -21 -25 -16 -8 20
12 27 28 34 28 12z m-1872 -59 c-20 -94 -73 -167 -101 -139 -19 19 80 200 102
186 5 -3 5 -24 -1 -47z m-11758 -24 c0 -8 -6 -14 -14 -14 -16 0 -29 27 -20 41
8 13 34 -9 34 -27z m6391 -11 c-9 -15 -10 -12 -10 17 0 29 1 32 10 18 7 -12 7
-24 0 -35z m-2712 -11 c36 -57 40 -73 10 -46 -30 27 -62 94 -45 94 2 0 18 -22
35 -48z m7051 21 c-1 -23 -35 -99 -49 -107 -18 -12 -13 30 11 79 23 47 38 58
38 28z m-6525 -16 c8 -13 18 -37 21 -55 5 -25 3 -32 -9 -32 -21 0 -57 47 -57
75 0 41 22 47 45 12z m9045 14 c0 -12 -29 -35 -36 -28 -11 10 5 37 21 37 8 0
15 -4 15 -9z m-13016 -73 c64 -97 83 -174 24 -95 -34 44 -78 121 -78 135 0 26
21 10 54 -40z m2425 3 c30 -47 81 -160 81 -181 0 -5 -9 -10 -20 -10 -13 0 -27
15 -44 48 -23 45 -66 165 -66 184 0 21 21 4 49 -41z m3177 4 c7 -19 14 -51 14
-72 l0 -37 -21 21 c-15 14 -23 38 -27 72 -5 61 11 69 34 16z m-6976 -15 c14
-26 13 -30 -8 -30 -25 0 -42 19 -42 47 0 21 3 22 20 13 11 -6 24 -19 30 -30z
m13247 -47 c-29 -57 -72 -100 -82 -83 -9 15 91 148 102 136 3 -2 -7 -26 -20
-53z m-3703 5 c-12 -84 -46 -218 -55 -218 -10 0 -4 51 16 145 24 106 51 158
39 73z m-1490 16 c28 -28 12 -84 -25 -84 -31 0 -46 43 -25 75 19 29 29 31 50
9z m-7485 -28 c23 -36 27 -56 11 -56 -11 0 -40 53 -40 75 0 22 6 19 29 -19z
m8221 20 c0 -28 -23 -121 -33 -131 -11 -11 -4 116 7 134 10 16 26 14 26 -3z
m-500 -41 c0 -14 -4 -25 -10 -25 -5 0 -10 11 -10 25 0 14 5 25 10 25 6 0 10
-11 10 -25z m3490 -20 c-7 -8 -19 -15 -26 -15 -20 0 -17 27 4 39 23 13 39 -3
22 -24z m-3392 -76 c2 -76 0 -87 -18 -104 -18 -17 -23 -17 -31 -5 -20 29 12
205 35 197 6 -2 12 -39 14 -88z m-6523 1 c-19 -31 -65 7 -65 53 l1 32 35 -38
c19 -21 32 -42 29 -47z m13406 49 c7 -14 8 -24 1 -31 -17 -17 -42 -1 -42 27 0
31 25 34 41 4z m-6203 -101 c3 -46 -31 -158 -49 -158 -5 0 -9 31 -9 70 0 113
51 191 58 88z m-6650 -16 c3 -17 -2 -22 -17 -22 -14 0 -21 6 -21 18 0 38 33
41 38 4z m5592 -17 c0 -37 -17 -56 -31 -34 -12 20 -11 53 3 67 17 17 28 5 28
-33z m-2016 -37 c8 -24 18 -54 22 -68 6 -22 5 -23 -9 -12 -17 15 -57 91 -57
110 0 29 30 8 44 -30z m6636 33 c0 -16 -38 -56 -46 -49 -11 12 13 58 31 58 8
0 15 -4 15 -9z m-6250 -31 c0 -10 -4 -22 -10 -25 -6 -4 -10 7 -10 25 0 18 4
29 10 25 6 -3 10 -15 10 -25z m4280 1 c13 -25 13 -135 -1 -184 -5 -21 -23 -52
-39 -70 -24 -26 -31 -30 -42 -19 -29 29 -4 212 37 270 20 27 31 28 45 3z m482
3 c-13 -9 -22 -26 -22 -40 0 -16 -5 -24 -12 -21 -28 9 8 77 41 77 11 0 9 -4
-7 -16z m-9204 -34 c3 -21 2 -22 -12 -11 -19 16 -21 44 -3 39 6 -3 14 -15 15
-28z m3757 20 c4 -6 4 -18 1 -27 -5 -12 -9 -13 -21 -3 -8 7 -15 19 -15 26 0
16 26 19 35 4z m-1405 -60 c19 -37 70 -203 70 -228 0 -18 -52 -10 -87 13 -21
14 -23 23 -23 92 0 41 -5 93 -11 114 -15 47 -6 77 17 58 8 -7 24 -29 34 -49z
m710 28 c17 -47 26 -196 11 -182 -12 11 -41 147 -41 190 0 34 16 30 30 -8z
m-190 -18 c0 -11 -4 -20 -10 -20 -5 0 -10 9 -10 20 0 11 5 20 10 20 6 0 10 -9
10 -20z m6905 -2 c-13 -45 -77 -167 -96 -184 -17 -15 -19 -15 -19 -1 0 23 37
114 66 165 27 45 60 59 49 20z m863 -11 c7 -33 -75 -133 -94 -115 -6 7 34 99
53 121 19 20 37 18 41 -6z m-9590 1 c14 -14 16 -38 4 -38 -5 0 -14 11 -20 25
-12 26 -4 33 16 13z m6483 -25 c-9 -16 -10 -14 -11 12 0 21 3 26 11 18 8 -8 8
-16 0 -30z m5198 -26 c14 -17 -4 -37 -34 -37 -26 0 -67 28 -60 41 9 14 81 11
94 -4z m-3585 -24 c-20 -81 -55 -153 -74 -153 -18 0 -11 30 24 106 35 74 63
101 50 47z m-8932 0 c23 -21 23 -36 -2 -58 -21 -19 -50 -14 -50 9 0 18 21 66
28 66 3 0 14 -7 24 -17z m1298 -62 c10 -20 23 -56 30 -80 7 -28 24 -55 46 -74
41 -37 43 -47 9 -47 -37 0 -99 34 -119 65 -42 64 -42 219 0 184 8 -7 24 -29
34 -48z m-554 -6 c3 -14 3 -32 0 -41 -10 -27 -31 -9 -34 29 -2 28 1 37 12 37
9 0 18 -11 22 -25z m6154 17 c0 -15 -28 -47 -35 -40 -8 8 13 48 25 48 6 0 10
-4 10 -8z m-7575 -10 c12 -8 46 -112 37 -112 -27 2 -98 92 -87 110 7 12 35 13
50 2z m13221 -18 c16 -23 16 -26 1 -42 -13 -12 -23 -14 -44 -6 -35 12 -39 28
-14 53 27 27 37 26 57 -5z m-2746 3 c0 -17 -38 -52 -47 -44 -10 11 15 57 32
57 8 0 15 -6 15 -13z m-1043 -59 c-2 -13 -4 -3 -4 22 0 25 2 35 4 23 2 -13 2
-33 0 -45z m-9082 22 c8 -16 15 -48 15 -71 0 -40 -1 -41 -19 -25 -25 23 -55
91 -48 110 10 25 35 18 52 -14z m1173 -18 c2 -12 -1 -22 -7 -22 -13 0 -32 35
-24 44 12 12 28 0 31 -22z m76 5 c22 -16 36 -76 27 -118 -6 -32 -7 -30 -36 42
-17 40 -31 77 -33 81 -6 13 23 9 42 -5z m8121 -145 c-9 -31 -26 -74 -38 -94
-55 -99 -47 14 9 128 34 68 39 75 42 51 2 -15 -4 -53 -13 -85z m-9077 45 c2
-28 -1 -37 -12 -37 -21 0 -39 36 -31 61 11 34 40 19 43 -24z m917 -18 c9 -17
15 -46 13 -67 l-4 -37 -13 30 c-15 34 -27 105 -18 105 4 0 14 -14 22 -31z
m-235 -44 c0 -14 -4 -25 -10 -25 -5 0 -10 11 -10 25 0 14 5 25 10 25 6 0 10
-11 10 -25z m4441 -40 c21 -45 24 -65 9 -65 -17 0 -60 74 -60 104 0 25 2 27
17 15 9 -8 24 -32 34 -54z m1479 30 c0 -33 -30 -106 -41 -100 -9 6 -4 48 13
103 11 36 28 34 28 -3z m-7462 -18 c2 -19 -1 -27 -12 -27 -18 0 -35 29 -29 48
9 23 38 8 41 -21z m-654 1 c13 -22 -5 -44 -28 -35 -22 9 -22 60 0 55 9 -2 22
-11 28 -20z m3327 1 c7 -14 8 -24 1 -31 -17 -17 -42 -1 -42 27 0 31 25 34 41
4z m8847 -12 c4 -20 -40 -67 -63 -67 -25 0 -18 46 12 70 29 23 46 22 51 -3z
m488 9 c12 -31 -74 -156 -108 -156 -18 0 -20 5 -15 34 9 59 38 107 71 122 40
17 45 17 52 0z m-11648 -71 c45 -38 57 -76 37 -114 -16 -31 -59 -60 -71 -48
-7 6 -34 142 -34 170 0 25 33 21 68 -8z m1691 -98 c42 -83 55 -137 35 -144
-12 -4 -83 127 -103 189 -14 42 -7 65 14 48 7 -6 31 -48 54 -93z m8891 93 c0
-12 -35 -31 -43 -24 -3 3 -3 12 0 20 6 16 43 19 43 4z m-4236 -42 c3 -13 6
-56 6 -95 0 -59 -3 -73 -15 -73 -21 0 -35 41 -35 101 0 74 30 119 44 67z m606
-3 c0 -14 -4 -25 -10 -25 -5 0 -10 11 -10 25 0 14 5 25 10 25 6 0 10 -11 10
-25z m-3268 -56 c24 -32 46 -135 32 -149 -27 -27 -51 8 -73 102 -18 75 3 99
41 47z m-2655 -11 c26 -29 36 -68 18 -68 -19 0 -68 66 -60 80 9 15 19 12 42
-12z m6801 -26 c3 -16 -2 -22 -17 -22 -26 0 -36 17 -20 36 16 19 33 13 37 -14z
m-7578 -23 c0 -22 -5 -50 -11 -61 -11 -21 -12 -21 -25 -3 -16 22 -18 44 -4 79
16 42 40 33 40 -15z m9399 -15 c-8 -20 -13 -24 -16 -13 -2 8 2 29 8 45 8 20
13 24 16 13 2 -8 -2 -29 -8 -45z m2291 41 c0 -20 -45 -134 -66 -166 -28 -45
-51 -47 -46 -4 6 51 76 175 100 175 6 0 12 -2 12 -5z m-9546 -34 c10 -11 19
-35 19 -53 2 -27 -2 -33 -18 -33 -25 0 -49 48 -41 81 8 29 17 30 40 5z m4556
-56 c0 -14 -4 -25 -10 -25 -5 0 -10 11 -10 25 0 14 5 25 10 25 6 0 10 -11 10
-25z m2320 -9 c0 -39 -12 -52 -29 -32 -8 9 -8 21 -1 40 14 37 30 32 30 -8z
m222 17 c6 -25 -1 -43 -17 -43 -21 0 -27 17 -15 40 13 25 26 26 32 3z m608
-27 c0 -13 -9 -34 -20 -47 -23 -28 -25 -14 -9 42 13 41 29 43 29 5z m980 -47
c0 -12 -7 -19 -20 -19 -22 0 -29 35 -7 43 18 6 27 -2 27 -24z m-1470 -24 c-22
-27 -31 -15 -13 18 13 25 18 28 21 14 2 -10 -2 -24 -8 -32z m-10133 -7 c11
-13 28 -35 38 -50 17 -27 17 -28 -6 -37 -51 -19 -99 31 -79 83 12 32 21 32 47
4z m-544 -27 c67 -44 71 -96 5 -68 -37 16 -81 64 -72 78 9 14 37 10 67 -10z
m3166 -39 c7 -13 6 -23 -1 -30 -19 -19 -28 -14 -28 18 0 34 14 39 29 12z
m-3658 -41 c27 -27 38 -69 23 -84 -8 -8 -73 19 -96 40 -18 16 -24 53 -11 66
15 16 57 5 84 -22z m10524 -60 c-3 -12 -13 -21 -21 -21 -17 0 -18 14 -3 42 14
26 34 9 24 -21z m-530 -53 c-19 -88 -62 -178 -86 -178 -15 0 -10 46 12 97 43
101 89 151 74 81z m3009 6 c20 -19 21 -44 1 -44 -17 0 -34 29 -28 48 6 16 8
15 27 -4z m-7044 -19 c0 -14 -4 -25 -10 -25 -5 0 -10 11 -10 25 0 14 5 25 10
25 6 0 10 -11 10 -25z m5063 -16 c-1 -19 -13 -60 -27 -92 -14 -32 -26 -66 -26
-77 0 -23 -56 -90 -76 -90 -19 0 -12 28 34 145 43 108 71 157 86 152 6 -2 10
-19 9 -38z m-8248 -20 c4 -11 4 -23 1 -27 -10 -9 -39 25 -32 37 11 17 24 13
31 -10z m1283 -9 c11 -30 2 -47 -18 -35 -12 8 -13 65 -1 65 5 0 14 -13 19 -30z
m3392 -25 c0 -14 -4 -25 -10 -25 -5 0 -10 11 -10 25 0 14 5 25 10 25 6 0 10
-11 10 -25z m2086 -44 c-10 -16 -36 -13 -36 3 0 17 21 27 34 16 4 -5 5 -13 2
-19z m3743 20 c25 -16 -6 -41 -50 -41 -47 0 -53 23 -11 38 35 13 44 14 61 3z
m-10659 -22 c7 -11 9 -28 5 -37 -6 -15 -10 -13 -31 11 -13 15 -24 32 -24 38 0
18 39 9 50 -12z m3847 -47 c-8 -82 -24 -132 -43 -132 -34 0 -20 141 18 188 23
28 31 11 25 -56z m-2369 20 c2 -12 0 -22 -5 -22 -12 0 -33 37 -26 44 12 12 28
0 31 -22z m1887 -7 c0 -27 -3 -30 -30 -30 -35 0 -45 24 -19 49 25 26 49 16 49
-19z m-1759 -30 c7 -18 -12 -45 -32 -45 -17 0 -18 32 -2 48 16 16 27 15 34 -3z
m1484 -70 c0 -30 -2 -55 -6 -55 -3 0 -12 16 -20 35 -11 26 -12 41 -4 55 19 35
30 22 30 -35z m2574 -19 c5 -29 5 -56 -1 -69 -10 -21 -10 -21 -26 10 -17 32
-23 94 -10 107 15 15 28 -3 37 -48z m1251 33 c17 -51 -22 -125 -46 -88 -10 16
-12 93 -2 102 14 14 42 6 48 -14z m-4875 -45 c0 -17 -27 -37 -40 -29 -14 9
-13 48 2 63 10 10 15 9 25 -5 7 -9 13 -22 13 -29z m3339 -64 c24 -86 27 -124
9 -118 -23 8 -41 62 -46 138 -5 93 8 86 37 -20z m3381 60 c0 -16 -43 -100 -52
-100 -19 0 -13 68 9 92 17 19 43 24 43 8z m-8573 -82 c32 -30 29 -48 -6 -48
-35 0 -45 12 -37 46 8 30 13 30 43 2z m1446 16 c8 -9 -11 -44 -23 -44 -6 0
-10 8 -10 18 0 27 18 41 33 26z m1003 -61 c9 -35 -13 -54 -32 -29 -14 20 -18
48 -8 59 11 11 34 -5 40 -30z m4860 -39 c-3 -8 -10 -14 -16 -14 -14 0 -13 27
2 53 l13 22 3 -23 c2 -13 1 -30 -2 -38z m-2762 12 c4 -18 20 -53 37 -76 32
-44 33 -58 2 -42 -23 13 -73 102 -73 131 0 34 27 24 34 -13z m-4386 -5 c-2 -9
-11 -17 -21 -19 -21 -4 -35 27 -17 38 19 12 42 0 38 -19z m5292 -6 c0 -19 -4
-35 -10 -35 -5 0 -10 16 -10 35 0 19 5 35 10 35 6 0 10 -16 10 -35z m2940 -8
c0 -29 -58 -147 -72 -147 -15 0 -3 51 28 115 27 58 44 70 44 32z m-6521 -5
c17 -31 34 -153 24 -163 -16 -16 -32 12 -49 84 -16 65 -14 97 5 97 6 0 15 -8
20 -18z m1758 -38 c-5 -52 -35 -104 -47 -84 -7 11 4 64 25 128 11 30 27 -3 22
-44z m-822 3 c18 -28 32 -117 18 -117 -12 0 -57 48 -72 78 -8 16 -9 28 -1 42
14 27 36 25 55 -3z m-1492 -80 c-8 -12 -33 20 -33 42 1 12 6 10 20 -8 11 -12
17 -28 13 -34z m2447 -10 c0 -17 -38 -53 -46 -44 -8 8 23 57 36 57 6 0 10 -6
10 -13z m-286 -73 c3 -9 6 -28 6 -44 0 -44 -10 -60 -37 -60 -24 0 -25 2 -18
46 3 26 9 53 12 60 7 19 29 18 37 -2z m4042 -110 c19 -28 9 -48 -22 -42 -20 3
-29 29 -20 54 8 21 24 17 42 -12z m-5349 -36 c-3 -7 -5 -2 -5 12 0 14 2 19 5
13 2 -7 2 -19 0 -25z m-376 -20 c32 -32 32 -33 10 -36 -30 -5 -71 24 -71 48 0
29 24 24 61 -12z m931 7 c8 -19 8 -31 -1 -51 -15 -34 -35 -26 -39 15 -6 61 19
83 40 36z m327 -89 c9 -10 8 -16 -4 -26 -19 -16 -41 1 -32 24 8 20 21 20 36 2z"/>
<path d="M8080 11423 l-73 -47 7 -535 c7 -501 8 -536 26 -561 10 -15 26 -46
34 -69 8 -24 24 -50 35 -58 39 -27 80 -133 52 -133 -12 0 -57 58 -105 135
l-37 60 3 -97 c5 -145 -1 -142 241 -149 179 -5 193 -4 205 13 8 11 64 43 126
72 l112 53 22 59 c45 124 119 444 128 557 10 128 -63 412 -134 523 -41 64 -79
100 -146 139 -46 27 -156 68 -164 61 -2 -3 1 -28 7 -56 6 -29 7 -58 3 -66 -15
-26 -33 9 -39 74 l-6 59 -66 7 c-137 13 -151 10 -231 -41z m114 -177 c20 -40
27 -129 11 -135 -13 -5 -52 74 -60 121 -12 69 18 77 49 14z m-124 -686 c0 -54
-15 -66 -30 -25 -6 17 -6 33 2 50 18 39 28 30 28 -25z m101 -217 c11 -29 4
-79 -13 -89 -14 -9 -68 50 -68 74 0 47 64 59 81 15z"/>
<path d="M13287 10503 c-22 -3 -32 -13 -44 -40 -8 -20 -12 -44 -10 -55 8 -28
-11 -84 -37 -115 -28 -33 -47 -23 -40 20 8 41 33 142 40 162 5 13 -17 15 -177
15 -188 0 -301 -11 -307 -30 -2 -6 -22 -32 -43 -56 -114 -132 -87 -265 71
-350 27 -15 55 -19 125 -18 77 0 103 5 180 34 113 43 226 119 288 195 l49 60
-4 67 c-3 54 -8 72 -28 93 -13 14 -26 24 -29 24 -3 -1 -19 -4 -34 -6z"/>
<path d="M11375 10966 c-27 -7 -62 -18 -77 -24 l-28 -12 0 -128 0 -129 38 -7
c20 -3 86 -3 146 1 108 6 108 6 118 35 13 37 28 36 28 -2 0 -28 2 -30 39 -30
44 0 83 26 106 70 24 46 18 68 -31 121 -88 93 -225 135 -339 105z"/>
<path d="M11183 10857 c-36 -38 -43 -53 -43 -86 0 -58 14 -87 50 -99 40 -15
41 -11 38 123 l-3 108 -42 -46z"/>
<path d="M14901 10916 c-81 -60 -156 -185 -190 -317 -22 -86 -45 -357 -35
-409 17 -85 68 -156 135 -191 62 -31 98 -25 168 27 34 25 65 53 70 62 17 34
22 113 19 317 -1 116 -1 253 0 305 2 86 0 99 -24 145 -15 27 -34 58 -42 68
-21 24 -62 21 -101 -7z m-71 -665 c0 -16 -38 -56 -46 -49 -11 12 13 58 31 58
8 0 15 -4 15 -9z"/>
<path d="M6500 10921 c-155 -52 -146 -46 -175 -115 -17 -41 -44 -80 -76 -111
-119 -116 -149 -295 -72 -437 40 -74 166 -189 255 -232 76 -38 169 -56 205
-41 10 5 23 7 29 6 22 -3 99 37 142 74 l42 37 -20 26 c-26 33 -57 103 -66 147
-5 27 -3 35 9 35 17 0 49 -63 67 -130 7 -25 14 -49 17 -53 11 -18 34 19 56 87
19 62 22 92 22 246 -1 220 -9 247 -122 369 -118 128 -164 142 -313 92z m124
-397 c17 -16 22 -64 8 -64 -11 0 -42 66 -35 74 9 8 10 8 27 -10z m-125 -106
c41 -55 61 -97 61 -126 -1 -33 -96 97 -114 156 -12 38 11 25 53 -30z"/>
</g>
</svg>
